<svg width="343" height="301" viewBox="0 0 343 301" fill="none" xmlns="http://www.w3.org/2000/svg">
<path d="M305.953 300.265C329.146 271.126 343 234.278 343 194.205C343 99.847 266.218 23.355 171.5 23.355C76.782 23.355 0 99.847 0 194.205C0 234.281 13.8542 271.129 37.0471 300.265H305.953Z" fill="#F13005" fill-opacity="0.06"/>
<path d="M301.096 261.515H270.733V300.353H301.096V261.515Z" fill="#FFA305"/>
<path d="M301.096 300.357V261.515H318.925L318.647 300.357H301.096Z" fill="#DE7F04"/>
<path d="M286.612 261.515H282.074V270.354H286.612V261.515Z" fill="#FFC766"/>
<path d="M256.72 300.357V261.515H270.733L270.515 300.357H256.72Z" fill="#DE7F04"/>
<path d="M272.398 231.216H249.902V261.515H272.398V231.216Z" fill="#DE7F04"/>
<path d="M252.531 261.515V231.216H234.806L235.04 261.515H252.531Z" fill="#FFA305"/>
<path d="M263.552 231.216H260.012V238.112H263.552V231.216Z" fill="#FFC766"/>
<path d="M309.846 231.216H287.35V261.515H309.846V231.216Z" fill="#FFA305"/>
<path d="M287.35 261.515V231.216H272.253L272.491 261.515H287.35Z" fill="#FFA305"/>
<path d="M309.846 231.216H296.351V261.515H309.846V231.216Z" fill="#DE7F04"/>
<path d="M257.458 261.515H226.005V300.353H257.458V261.515Z" fill="#FFA305"/>
<path d="M244 261.515H239.462V270.354H244V261.515Z" fill="#FFC766"/>
<path d="M285.915 231.216H282.374V238.112H285.915V231.216Z" fill="#FFC766"/>
<path d="M289.107 201.423H266.611V231.722H289.107V201.423Z" fill="#DE7F04"/>
<path d="M269.239 231.722V201.423H251.515L251.748 231.722H269.239Z" fill="#FFA305"/>
<path d="M280.261 201.423H276.721V208.319H280.261V201.423Z" fill="#FFC766"/>
<path d="M309.98 23.3982C310.006 15.2445 303.392 8.61396 295.208 8.58848C287.024 8.563 280.369 15.1522 280.344 23.3059C280.318 31.4596 286.932 38.0901 295.116 38.1156C303.299 38.1411 309.954 31.5519 309.98 23.3982Z" fill="#DBE6F1"/>
<path d="M237.609 14.793C235.34 1.39613 214.631 -4.65039 215.039 4.0925L120.117 4.64655C113.544 4.68349 108.213 10.5786 108.205 17.8144L108.009 266.512C108.001 274.01 113.425 280.138 120.128 280.197L217.026 281.025C217.626 282.284 218.753 283.429 220.525 284.382C231.636 284.619 236.967 279.152 238.914 272.969C239.548 271.31 239.892 269.475 239.878 267.543C239.492 264.311 238.309 17.9326 237.609 14.793Z" fill="#4D4D4D"/>
<path d="M219.491 284.423L108.264 283.71C101.324 283.666 95.7078 277.372 95.7227 269.656L96.1416 13.8918C96.1527 6.45281 101.68 0.409986 108.487 0.387824L217.548 0.0369261C224.411 0.0147641 230.02 6.0502 230.075 13.5225L232.051 270.468C232.114 278.217 226.487 284.471 219.491 284.423Z" fill="#4D4D4D"/>
<path d="M221.026 282.565C220.562 282.628 220.092 282.657 219.621 282.654L108.428 281.815C102.463 281.771 97.5874 276.253 97.5986 269.519L97.9841 14.0359C97.9952 7.54245 102.792 2.24205 108.643 2.2162L217.7 1.74341C217.871 1.74341 218.042 1.7471 218.212 1.75449C220.955 1.88007 223.521 3.12853 225.438 5.25977C227.395 7.43903 228.485 10.3238 228.511 13.3932L230.461 270.601C230.509 276.692 226.465 281.837 221.026 282.565Z" fill="#0D0D0D"/>
<path d="M224.685 14.6823L226.25 270.993L101.298 270.247L101.617 14.6823H224.685Z" fill="white"/>
<path d="M139.387 68.3143L153.193 68.1998L197.562 13.7737L183.693 13.8882L139.387 68.3143Z" fill="#F13005"/>
<path d="M153.193 68.1997L166.988 68.0889L211.428 13.6628L197.562 13.7737L153.193 68.1997Z" fill="#F1E3E0"/>
<path d="M166.988 68.0889L180.794 67.9781L225.286 13.5483L211.428 13.6628L166.988 68.0889Z" fill="#F13005"/>
<path d="M125.592 68.4251L139.387 68.3143L183.693 13.8882L169.839 14.0027L125.592 68.4251Z" fill="#F1E3E0"/>
<path d="M97.9952 68.6504L111.79 68.5396L155.97 14.1135L142.116 14.228L97.9952 68.6504Z" fill="#F1E3E0"/>
<path d="M57.9489 68.9754L70.3943 68.8756L114.393 14.4532L101.903 14.5567L57.9489 68.9754Z" fill="#F13005"/>
<path d="M70.3943 68.8757L84.1892 68.7649L128.251 14.3425L114.393 14.4533L70.3943 68.8757Z" fill="#F1E3E0"/>
<path d="M111.79 68.5396L125.592 68.4251L169.839 14.0027L155.97 14.1135L111.79 68.5396Z" fill="#F13005"/>
<path d="M84.1892 68.7649L97.9952 68.6504L142.116 14.228L128.251 14.3425L84.1892 68.7649Z" fill="#F13005"/>
<path d="M166.988 68.089L166.984 76.3738C166.981 85.1537 180.765 85.0429 180.779 76.263L180.794 67.9781L166.988 68.089Z" fill="#D62B04"/>
<path d="M153.193 68.1997L153.197 76.4846C153.201 85.2644 166.977 85.1499 166.984 76.3737L166.988 68.0889L153.193 68.1997Z" fill="#F1C5BC"/>
<path d="M139.387 68.3142L139.402 76.5991C139.417 85.3789 153.201 85.2644 153.197 76.4882L153.193 68.2034L139.387 68.3142Z" fill="#D62B04"/>
<path d="M125.592 68.425L125.615 76.7099C125.641 85.4897 139.413 85.3752 139.402 76.5991L139.387 68.3142L125.592 68.425Z" fill="#F1C5BC"/>
<path d="M111.79 68.5395L111.823 76.8244C111.857 85.6042 125.644 85.4897 125.618 76.7136L125.596 68.4287L111.79 68.5395Z" fill="#D62B04"/>
<path d="M97.9952 68.6504L98.036 76.9352C98.0805 85.7151 111.857 85.6006 111.82 76.8244L111.786 68.5396L97.9952 68.6504Z" fill="#F1C5BC"/>
<path d="M84.1892 68.7649L84.2411 77.0497C84.2967 85.8296 98.0805 85.7151 98.036 76.9389L97.9952 68.6541L84.1892 68.7649Z" fill="#D62B04"/>
<path d="M70.3943 68.8757L70.4536 77.1606C70.5167 85.9404 84.293 85.8259 84.2374 77.0498L84.1855 68.7649L70.3943 68.8757Z" fill="#F1C5BC"/>
<path d="M57.9489 68.9755L58.0193 77.2603C58.0935 86.0365 70.5204 85.9367 70.4574 77.1606L70.398 68.8757L57.9489 68.9755Z" fill="#D62B04"/>
<path d="M180.794 67.9781L179.712 68.1259L225.345 67.7233L225.286 13.5483L180.794 67.9781Z" fill="#F1E3E0"/>
<path d="M217.964 195.184L108.683 195.077V193.636L217.964 193.751V195.184Z" fill="#0776ED"/>
<path d="M217.964 235.441L108.683 235.33V233.89L217.964 234.004V235.441Z" fill="#0776ED"/>
<path d="M217.964 154.011L108.683 153.874V152.688L217.964 152.829V154.011Z" fill="#04F2F5"/>
<path d="M208.202 101.797L118.63 101.273C115.405 101.254 112.78 98.5763 112.78 95.3C112.78 92.0238 115.405 89.3791 118.63 89.4013L208.202 89.9886C211.391 90.0107 213.986 92.6738 213.986 95.928C213.982 99.1821 211.391 101.816 208.202 101.797ZM118.63 89.7965C115.62 89.778 113.169 92.2491 113.169 95.3037C113.169 98.3621 115.62 100.863 118.63 100.881L208.202 101.406C211.179 101.424 213.6 98.9641 213.6 95.928C213.6 92.8918 211.179 90.4022 208.202 90.3838L118.63 89.7965Z" fill="#0776ED"/>
<path d="M208.202 90.1843L198.882 90.1252V101.55L208.202 101.605C211.291 101.624 213.793 99.0824 213.793 95.9317C213.793 92.7773 211.291 90.2065 208.202 90.1843Z" fill="#0776ED"/>
<path d="M204.751 97.5274C203.976 97.5237 203.249 97.2097 202.701 96.6483C201.57 95.4885 201.57 93.6121 202.701 92.467C203.249 91.913 203.976 91.6101 204.751 91.6138C205.526 91.6175 206.252 91.9315 206.801 92.4929C207.932 93.6527 207.932 95.5291 206.801 96.6741C206.252 97.2319 205.522 97.5347 204.751 97.5274ZM204.751 92.3267C204.165 92.323 203.613 92.552 203.197 92.9731C202.341 93.8411 202.341 95.2668 203.197 96.1459C203.613 96.5707 204.165 96.8108 204.751 96.8145C205.337 96.8182 205.889 96.5892 206.304 96.1681C207.161 95.3001 207.161 93.8743 206.304 92.9952C205.889 92.5705 205.337 92.3304 204.751 92.3267Z" fill="white"/>
<path d="M208.499 98.9457L206.304 96.6741L206.797 96.1718L208.992 98.4434L208.499 98.9457Z" fill="white"/>
<path d="M209.478 99.448C209.233 99.6955 208.833 99.6955 208.588 99.4444L206.749 97.5569L207.639 96.6556L209.478 98.5431C209.726 98.7943 209.726 99.2006 209.478 99.448Z" fill="white"/>
<path d="M143.432 147.565L112.784 147.421V116.232L143.432 116.413V147.565Z" fill="#0776ED"/>
<path d="M179.107 147.731L148.537 147.587V116.443L179.107 116.62V147.731Z" fill="#0776ED"/>
<path d="M213.897 147.894L183.4 147.75V116.646L213.897 116.823V147.894Z" fill="#0776ED"/>
<path d="M143.432 189.385L112.784 189.285V158.1L143.432 158.233V189.385Z" fill="#0776ED"/>
<path d="M179.107 189.499L148.537 189.4V158.255L179.107 158.388V189.499Z" fill="#0776ED"/>
<path d="M213.897 189.61L183.4 189.514V158.406L213.897 158.536V189.61Z" fill="#0776ED"/>
<path d="M143.432 230.477L112.784 230.425V199.236L143.432 199.325V230.477Z" fill="#0776ED"/>
<path d="M179.107 230.54L148.537 230.484V199.339L179.107 199.424V230.54Z" fill="#0776ED"/>
<path d="M213.897 230.599L183.4 230.547V199.439L213.897 199.524V230.599Z" fill="#0776ED"/>
<path d="M136.507 139.846L135.825 139.639C135.839 139.587 137.022 134.427 137.118 132.462C137.233 130.098 136.507 128.004 135.016 126.404C133.315 124.576 130.723 123.52 127.902 123.505C125.148 123.49 122.749 124.421 121.151 126.131C119.683 127.701 118.979 129.858 119.116 132.366C119.223 134.349 120.221 139.336 120.232 139.388L119.535 139.528C119.494 139.321 118.519 134.438 118.408 132.403C118.259 129.692 119.03 127.35 120.636 125.629C122.371 123.774 124.951 122.762 127.906 122.777C130.916 122.796 133.697 123.933 135.535 125.906C137.163 127.653 137.956 129.932 137.834 132.499C137.73 134.549 136.566 139.639 136.507 139.846Z" fill="#03ABB0"/>
<path d="M119.575 136.159L120.506 141.208C120.606 141.755 121.092 142.128 121.622 142.095L120.313 134.929C119.802 135.084 119.475 135.613 119.575 136.159Z" fill="#03ABB0"/>
<path d="M121.752 142.08L123.754 141.707L122.43 134.53L120.428 134.903C120.391 134.911 120.354 134.918 120.317 134.929L121.626 142.095C121.666 142.091 121.707 142.088 121.752 142.08Z" fill="#03ABB0"/>
<path d="M124.284 142.416C123.672 142.531 123.083 142.117 122.968 141.497L121.774 135.014C121.659 134.39 122.063 133.795 122.675 133.681C123.286 133.566 123.876 133.98 123.991 134.601L125.185 141.083C125.296 141.703 124.895 142.302 124.284 142.416Z" fill="white"/>
<path d="M136.54 136.318L135.487 141.327C135.372 141.87 134.879 142.224 134.349 142.173L135.836 135.059C136.344 135.236 136.655 135.775 136.54 136.318Z" fill="#03ABB0"/>
<path d="M134.223 142.154L132.232 141.711L133.73 134.586L135.721 135.029C135.758 135.036 135.795 135.048 135.832 135.059L134.345 142.173C134.305 142.173 134.264 142.165 134.223 142.154Z" fill="#03ABB0"/>
<path d="M131.684 142.402C132.292 142.538 132.888 142.147 133.018 141.526L134.371 135.092C134.501 134.475 134.116 133.862 133.508 133.729C132.9 133.592 132.303 133.984 132.173 134.601L130.82 141.039C130.686 141.655 131.076 142.265 131.684 142.402Z" fill="white"/>
<path d="M167.689 127.564L166.97 128.868L153.846 128.798V140.233L173.806 140.333V129.042L173.016 127.594L167.689 127.564Z" fill="white"/>
<path d="M166.132 129.441L161.527 129.415V127.531L166.132 127.553V129.441Z" fill="white"/>
<path d="M159.993 129.407L155.392 129.381V127.498L159.993 127.52V129.407Z" fill="white"/>
<path d="M173.806 138.117L153.846 138.017V131.417L173.806 131.52V138.117Z" fill="#073B73"/>
<path d="M172.419 134.811C172.419 137.386 170.373 139.458 167.845 139.447C165.316 139.436 163.27 137.338 163.27 134.763C163.27 132.189 165.32 130.113 167.845 130.128C170.373 130.142 172.419 132.24 172.419 134.811Z" fill="#073B73"/>
<path d="M171.392 134.807C171.392 136.802 169.806 138.412 167.845 138.401C165.887 138.39 164.297 136.765 164.297 134.77C164.297 132.776 165.883 131.165 167.845 131.177C169.802 131.188 171.392 132.813 171.392 134.807Z" fill="white"/>
<path d="M169.543 134.796C169.543 135.749 168.783 136.521 167.845 136.514C166.907 136.51 166.147 135.731 166.147 134.778C166.147 133.825 166.907 133.053 167.845 133.06C168.783 133.064 169.543 133.843 169.543 134.796Z" fill="#4489C8"/>
<path d="M139.977 223.972C139.821 220.836 132.777 218.86 132.777 218.86C132.777 218.86 126.33 211.791 123.631 208.248C119.042 210.032 117.948 212.241 118.63 216.09C120.866 214.199 124.684 217.678 129.322 223.954L139.977 223.972Z" fill="#073B73"/>
<path d="M118.63 216.09L120.161 224.271H120.899C121.103 220.589 121.563 216.419 124.009 217.752C124.009 214.469 118.63 214.457 118.63 216.09Z" fill="#03ABB0"/>
<path d="M130.182 163.005C130.041 162.599 129.956 162.17 129.915 161.738H129.574C129.563 162.129 129.478 162.539 129.418 162.757C129.177 163.655 128.503 164.327 127.702 164.368C126.901 164.32 126.226 163.64 125.985 162.743C125.926 162.521 125.841 162.111 125.83 161.723H125.489C125.448 162.155 125.363 162.584 125.222 162.99C124.877 163.991 124.284 164.83 123.583 165.524L124.128 170.636L127.55 170.651H127.85L131.272 170.665L131.817 165.557C131.12 164.855 130.527 164.01 130.182 163.005Z" fill="white"/>
<path d="M135.665 184.059C134.141 185.61 121.629 185.724 119.735 184.003C120.588 179.168 121.707 174.496 124.128 170.632L131.276 170.658C133.441 174.012 134.675 178.836 135.665 184.059Z" fill="white"/>
<path d="M128.325 171.873C125.429 171.862 124.061 170.629 124.002 170.577C123.957 170.536 123.954 170.47 123.995 170.425C124.035 170.381 124.102 170.377 124.147 170.418C124.161 170.429 125.518 171.648 128.325 171.659H128.328C130.827 171.667 131.172 170.643 131.176 170.632C131.194 170.577 131.253 170.544 131.309 170.562C131.365 170.581 131.398 170.64 131.38 170.695C131.365 170.743 131.009 171.884 128.328 171.873C128.325 171.873 128.325 171.873 128.325 171.873Z" fill="#4489C8"/>
<path d="M128.028 173.835C127.961 173.835 127.88 173.805 127.795 173.702C127.272 173.052 128.577 171.822 128.725 171.685L128.959 171.471L128.903 171.785C128.821 172.235 128.521 173.713 128.087 173.824C128.073 173.831 128.054 173.835 128.028 173.835ZM128.629 172.091C128.225 172.523 127.691 173.225 127.965 173.565C127.987 173.591 128.017 173.624 128.039 173.617C128.217 173.569 128.462 172.845 128.629 172.091Z" fill="#4489C8"/>
<path d="M128.688 172.028L128.695 171.763C128.695 171.696 128.74 170.171 129.326 169.661C129.481 169.524 129.663 169.469 129.867 169.498C130.097 169.532 130.182 169.65 130.215 169.746C130.397 170.304 129.133 171.593 128.877 171.844L128.688 172.028ZM129.771 169.705C129.659 169.705 129.559 169.742 129.467 169.823C129.088 170.152 128.966 171.028 128.925 171.482C129.459 170.92 130.108 170.104 130.012 169.809C130.004 169.79 129.986 169.727 129.837 169.705C129.815 169.709 129.793 169.705 129.771 169.705Z" fill="#4489C8"/>
<path d="M130.827 173.613C130.786 173.613 130.749 173.591 130.731 173.55C130.101 172.239 128.788 171.873 128.773 171.87C128.718 171.855 128.681 171.796 128.695 171.737C128.71 171.678 128.77 171.644 128.825 171.659C128.885 171.674 130.249 172.054 130.92 173.458C130.946 173.513 130.924 173.576 130.872 173.602C130.857 173.609 130.842 173.613 130.827 173.613Z" fill="#4489C8"/>
<path d="M160.3 166.37C160.3 166.37 162.45 167.09 165.598 166.281C167.615 168.763 164.063 169.949 161.842 169.41C159.629 168.87 160.3 166.37 160.3 166.37Z" fill="white"/>
<path d="M165.602 166.281C165.427 166.957 165.079 167.548 164.434 167.929C162.925 168.815 160.975 167.866 160.304 166.37C159.11 166.525 158.061 166.758 157.312 167.035V184.162L169.183 184.203V167.083C168.119 166.665 166.881 166.41 165.602 166.281Z" fill="#073B73"/>
<path d="M157.308 167.031L152.192 171.046L155.559 175.534L160.567 171.751L157.308 167.031Z" fill="#073B73"/>
<path d="M169.22 167.079L174.336 171.131L170.974 175.593L165.965 171.774L169.22 167.079Z" fill="#073B73"/>
<path d="M187.297 181.41H187.06V182.43C187.06 182.43 199.839 183.357 204.869 182.493C209.897 181.628 210.241 179.944 210.241 179.944V178.895H210.067L187.297 181.41Z" fill="#073B73"/>
<path d="M210.041 179.39C208.725 181.126 204.729 181.647 199.731 181.709C197.674 181.739 195.446 181.691 193.162 181.617C191.219 181.551 189.239 181.473 187.293 181.41C187.1 179.955 187.608 177.247 188.009 175.755C188.138 175.271 188.257 174.913 188.335 174.769L188.409 174.743C189.076 175.663 190.708 176.221 191.675 176.202C193.258 176.169 195.041 175.072 194.53 173.742C194.445 173.558 194.381 173.399 194.337 173.247C193.933 171.925 195.045 171.921 196.71 172.952C199.664 174.828 202.289 175.504 204.41 175.844C204.847 175.914 205.266 175.969 205.659 176.021C208.636 176.409 210.308 176.424 210.041 179.39Z" fill="white"/>
<path d="M209.874 179.39C208.558 181.126 204.562 181.647 199.564 181.709C199.42 180.978 199.294 179.054 201.867 178.585C203.82 178.23 204.929 176.956 205.492 176.025C208.469 176.409 210.141 176.424 209.874 179.39Z" fill="#073B73"/>
<path d="M192.999 181.617C191.056 181.551 189.076 181.473 187.13 181.41C186.937 179.955 187.445 177.247 187.846 175.755C189.499 176.346 192.443 177.898 192.999 181.617Z" fill="#073B73"/>
<path d="M204.41 175.848C204.032 176.446 203.446 176.464 202.886 176.461C197.833 176.106 195.271 174.104 194.337 173.247C193.933 171.925 195.045 171.921 196.71 172.952C199.664 174.832 202.293 175.508 204.41 175.848Z" fill="#073B73"/>
<path d="M198.408 181.901C195.816 181.894 193.221 181.746 191.101 181.628C189.236 181.525 187.764 181.44 187.163 181.514L187.067 181.525L187.045 181.325L187.141 181.314C187.76 181.24 189.239 181.325 191.112 181.429C197.047 181.761 208.087 182.385 209.986 178.847L210.034 178.758L210.204 178.854L210.156 178.943C208.847 181.381 203.631 181.92 198.408 181.901Z" fill="#D4E7F7"/>
<path d="M202.141 142.549L195.716 142.52V122.604L202.141 122.64V142.549Z" fill="#073B73"/>
<path d="M204.336 132.307C204.336 135.505 201.792 138.084 198.656 138.069C195.52 138.054 192.973 135.446 192.973 132.248C192.973 129.049 195.516 126.471 198.656 126.486C201.792 126.504 204.336 129.112 204.336 132.307Z" fill="white"/>
<path d="M203.227 132.303C203.227 134.878 201.181 136.953 198.656 136.942C196.131 136.931 194.081 134.829 194.081 132.255C194.081 129.681 196.128 127.605 198.656 127.616C201.181 127.631 203.227 129.729 203.227 132.303Z" fill="#073B73"/>
<path d="M194.026 129.688L193.295 129.163L194.163 127.911L194.889 128.436L194.026 129.688Z" fill="white"/>
<path d="M193.359 132.221L192.477 132.337L192.679 133.861L193.561 133.745L193.359 132.221Z" fill="white"/>
<path d="M203.249 129.706L203.983 129.2L203.134 127.926L202.4 128.432L203.249 129.706Z" fill="white"/>
<path d="M203.731 133.877L204.614 134.002L204.814 132.48L203.932 132.355L203.731 133.877Z" fill="white"/>
<path d="M198.667 132.528L196.435 131.343C196.332 131.287 196.291 131.154 196.343 131.051C196.398 130.944 196.524 130.903 196.628 130.959L198.641 132.026L201.477 130.187C201.577 130.124 201.707 130.153 201.77 130.253C201.833 130.353 201.804 130.49 201.707 130.552L198.667 132.528Z" fill="white"/>
<path d="M152.834 219.751C153.898 220.083 155.425 220.349 157.168 220.541C160.033 220.855 163.492 220.969 166.454 220.851C169.383 220.737 171.826 220.393 172.746 219.795C172.746 219.795 174.699 207.99 163.185 207.698C163.055 207.694 162.925 207.694 162.792 207.691C150.832 207.657 152.834 219.751 152.834 219.751Z" fill="#073B73"/>
<path d="M157.168 220.537C160.033 220.851 163.492 220.966 166.454 220.848C168.082 210.125 163.433 207.809 163.185 207.694C163.177 207.691 163.173 207.691 163.173 207.691H162.792C156.726 211.126 157.023 218.827 157.168 220.537Z" fill="white"/>
<path d="M171.504 220.242C171.504 220.242 168.245 225.749 153.13 224.475C146.657 223.928 152.834 219.751 152.834 219.751C156.908 220.748 164.753 221.221 171.504 220.242Z" fill="#073B73"/>
<path d="M195.027 210.997L201.993 211.015C205.956 211.026 209.266 214.277 209.24 218.317C209.229 219.932 208.725 221.357 207.509 222.107L189.147 222.07C187.986 221.52 187.542 219.603 187.849 217.309C188.335 213.671 191.427 210.989 195.027 210.997Z" fill="#073B73"/>
<path d="M196.079 211.189L196.083 211.126C196.198 209.759 197.355 208.688 198.723 208.692C200.091 208.695 201.247 209.77 201.362 211.137L201.366 211.2L202.263 211.203L202.252 211.063C202.1 209.227 200.547 207.783 198.719 207.779C196.891 207.776 195.338 209.209 195.186 211.045L195.175 211.185L196.079 211.189Z" fill="#073B73"/>
<path d="M197.881 222.085L196.161 222.081V215.215L197.881 215.218V222.085Z" fill="white"/>
<path d="M201.292 222.092L199.572 222.089V215.222L201.292 215.226V222.092Z" fill="white"/>
<path d="M226.25 257.322H101.298V270.993H226.25V257.322Z" fill="#0776ED"/>
<path d="M169.865 268.296H162.336V262.878L166.098 260.019L169.865 262.878V268.296Z" fill="white"/>
<path d="M125.285 261.685H115.957V266.634H125.285V261.685Z" fill="white"/>
<path d="M217.263 261.685H207.935V266.634H217.263V261.685Z" fill="white"/>
<path d="M248.312 280.862H119.182V290.931H248.312V280.862Z" fill="#0D0D0D"/>
<path d="M210.189 280.862H62.8092V290.931H210.189V280.862Z" fill="#4D4D4D"/>
<path d="M202.234 290.931H33.1693V301H202.234V290.931Z" fill="#4D4D4D"/>
<path d="M248.308 290.931H189.032V301H248.308V290.931Z" fill="#0D0D0D"/>
<path d="M117.006 185.784C113.777 195.214 115.764 215.218 111.16 228.405C104.012 248.868 107.564 257.888 104.301 273.671L111.827 274.239C118.819 243.257 134.475 199.384 136.407 189.407C138.338 179.427 120.039 178.09 117.006 185.784Z" fill="#014A91"/>
<path d="M128.87 197.319C129.181 200.994 134.204 222.129 131.316 232.22C126.753 248.158 129.133 275.994 129.133 275.994L135.194 275.953C141.096 250.112 149.149 212.437 148.507 188.635C147.618 178.629 126.983 175.131 128.87 197.319Z" fill="#014A91"/>
<path d="M132.425 201.134C141.305 201.134 148.504 195.687 148.504 188.968C148.504 182.248 141.305 176.801 132.425 176.801C123.545 176.801 116.346 182.248 116.346 188.968C116.346 195.687 123.545 201.134 132.425 201.134Z" fill="#014A91"/>
<path d="M137.578 288.907C136.94 288.552 135.602 288.231 135.602 288.231L134.297 282.498L141.07 251.224L128.158 250.009L128.191 280.349L127.242 283.854C127.242 283.854 131.646 290.396 132.659 290.396C133.667 290.396 137.571 290.473 138.186 290.473C138.194 290.085 138.134 289.214 137.578 288.907Z" fill="#A64B30"/>
<path d="M127.242 283.854L128.162 290.787H128.577L131.65 283.581L127.242 283.854Z" fill="#A64B30"/>
<path d="M112.68 288.907C112.064 288.552 110.745 288.231 110.745 288.231L109.796 282.498L118.426 249.813L106.466 248.495L103.823 280.349L102.533 283.581C102.533 283.581 106.659 290.396 107.668 290.396C108.676 290.396 112.572 290.473 113.191 290.473C113.221 290.085 113.217 289.214 112.68 288.907Z" fill="#A64B30"/>
<path d="M102.533 283.581L103.145 290.787H103.564L107.078 283.581H102.533Z" fill="#A64B30"/>
<path d="M123.223 173.617C119.19 178.422 117.251 183.265 116.51 187.867C116.51 187.867 121.748 191.863 131.168 191.9C135.914 191.919 145.986 190.711 148.455 187.956C148.151 185.418 147.288 179.649 144.607 172.136C142.171 165.317 126.782 164.663 123.223 173.617Z" fill="#014A91"/>
<path d="M128.821 190.597C129.771 187.435 129.956 183.675 129.956 183.675L120.272 182.836C119.935 185.274 119.635 187.549 119.575 189.503L123.705 192.602L128.821 190.597Z" fill="#0D64B8"/>
<path d="M143.054 191.199C143.832 187.989 143.818 184.225 143.818 184.225L134.104 183.904C133.897 186.356 133.719 188.646 133.767 190.6L138.056 193.478L143.054 191.199Z" fill="#0D64B8"/>
<path d="M125.93 143.502C125.93 143.502 117.577 137.375 100.987 164.748C98.8813 168.224 91.7076 184.868 91.7076 184.868L96.0118 187.671L108.88 169.506C108.884 169.502 134.664 148.005 125.93 143.502Z" fill="#F7A58E"/>
<path d="M88.3785 197.315C88.3599 197.312 88.3377 197.301 88.3229 197.286C88.2747 197.241 88.2747 197.168 88.3192 197.12C88.3637 197.072 92.9162 192.329 92.7086 189.618C92.6678 189.097 92.4491 188.68 92.0524 188.38C89.3387 186.327 82.3912 193.496 82.3207 193.57C82.2763 193.618 82.2021 193.618 82.1539 193.574C82.1057 193.529 82.1057 193.455 82.1502 193.407C82.4431 193.105 89.3127 186.013 92.1933 188.196C92.6456 188.535 92.8977 189.008 92.9422 189.603C93.1609 192.421 88.6788 197.09 88.4897 197.286C88.46 197.315 88.4156 197.326 88.3785 197.315Z" fill="#103558"/>
<path d="M86.0281 195.701C86.0021 195.694 85.9761 195.679 85.9576 195.653C85.9205 195.601 85.9317 195.528 85.9873 195.491C86.0466 195.45 91.804 191.405 91.8522 188.945C91.8596 188.499 91.6817 188.144 91.3035 187.856C88.575 185.791 80.0407 191.904 79.9555 191.967C79.9036 192.004 79.8294 191.993 79.7887 191.941C79.7516 191.889 79.7627 191.815 79.8146 191.775C80.1705 191.516 88.5787 185.496 91.4444 187.667C91.8819 188 92.0969 188.428 92.0895 188.949C92.0376 191.527 86.3617 195.513 86.1207 195.683C86.0948 195.701 86.0577 195.709 86.0281 195.701Z" fill="#103558"/>
<path d="M74.8616 188.074L50.5306 216.858L58.9684 222.425L79.2956 190.999L74.8616 188.074Z" fill="#F05B5B"/>
<path d="M80.3336 191.686L58.9276 222.399L72.7818 231.541L91.5779 199.103L80.3336 191.686Z" fill="#E54547"/>
<path d="M78.1352 190.234L58.2714 215.492L58.9684 222.425L80.3707 191.708L78.1352 190.234Z" fill="#F1696A"/>
<path d="M58.2714 215.492L50.4861 216.829L58.9276 222.399L58.2714 215.492Z" fill="#F05B5B"/>
<path d="M83.6961 194.475L63.3393 227.097L72.6817 231.493L88.6046 196.783L83.6961 194.475Z" fill="#0776ED"/>
<path d="M89.7502 197.323L72.6335 231.471L87.9744 238.688L102.199 203.181L89.7502 197.323Z" fill="#0776ED"/>
<path d="M87.3182 196.178L70.9578 224.589L72.6817 231.493L89.791 197.341L87.3182 196.178Z" fill="#073B73"/>
<path d="M70.9578 224.589L63.2911 227.075L72.6335 231.471L70.9578 224.589Z" fill="#065CB8"/>
<path d="M96.1972 187.379L94.6475 190.098C94.6475 190.098 95.9785 191.417 95.3964 192.288C93.7429 194.124 89.6315 193.478 88.7789 192.735C87.9262 191.993 87.1032 190.068 87.7556 188.62C88.4118 187.173 91.7076 184.868 91.7076 184.868C91.7076 184.868 95.7486 185.739 96.1972 187.379Z" fill="#F7A58E"/>
<path d="M136.095 150.18L124.28 150.542L126.731 130.763L136.184 130.471L136.095 150.18Z" fill="#F7A58E"/>
<path d="M142.605 122.969C143.588 130.885 141.919 136.835 136.136 137.434C130.353 138.032 122.293 131.217 121.659 125.141C121.025 119.061 125.199 113.65 130.983 113.048C136.766 112.446 141.853 116.904 142.605 122.969Z" fill="#F7A58E"/>
<path d="M140.715 124.827C140.941 125.994 140.173 127.121 139.002 127.346C137.83 127.572 136.7 126.807 136.473 125.64C136.247 124.473 137.015 123.346 138.186 123.121C139.358 122.895 140.488 123.66 140.715 124.827Z" fill="#F7A58E"/>
<path d="M145.916 156.571C145.864 158.79 145.69 175.109 145.69 175.109C145.69 175.109 131.962 174.256 122.83 174.097C118.656 156.703 113.521 148.441 123.768 142.657C138.26 137.231 145.975 148.829 145.916 156.571Z" fill="#0386C2"/>
<path d="M138.42 141.692C127.802 145.179 123.768 142.656 123.768 142.656C126.056 140.891 134.583 139.624 138.42 141.692Z" fill="#F7A58E"/>
<path d="M98.9814 202.106C98.9369 202.095 98.8998 202.058 98.8924 202.01C98.8776 201.929 97.4058 193.695 94.5771 190.102C94.5363 190.05 94.5474 189.976 94.5956 189.935C94.6475 189.895 94.7217 189.906 94.7625 189.954C97.6282 193.596 99.1111 201.884 99.126 201.966C99.1371 202.028 99.0926 202.091 99.0296 202.102C99.011 202.11 98.9962 202.106 98.9814 202.106Z" fill="#103558"/>
<path d="M91.9338 198.826C91.9152 198.822 91.8967 198.811 91.8782 198.796C91.83 198.752 87.244 194.357 87.4109 189.577C87.4146 189.511 87.4665 189.463 87.5332 189.463C87.5999 189.466 87.6481 189.518 87.6481 189.584C87.485 194.261 91.9968 198.582 92.0413 198.626C92.0895 198.671 92.0895 198.745 92.045 198.793C92.0153 198.822 91.9708 198.837 91.9338 198.826Z" fill="#103558"/>
<path d="M186.214 136.03C188.075 134.043 189.28 132.196 188.917 131.856C188.557 131.513 186.767 132.802 184.865 134.756C183.556 136.122 185.21 136.898 186.214 136.03Z" fill="#F7A58E"/>
<path d="M185.506 134.135L180.95 137.796C179.523 138.73 177.476 140.078 175.233 141.552C170.855 144.429 165.598 147.015 163.029 148.703C163.029 148.703 154.509 145.611 146.164 143.51C139.491 141.829 132.851 141.633 131.706 144.666C129.352 150.901 136.685 154.14 148.511 156.098C148.511 156.094 148.515 156.09 148.515 156.087C154.517 157.114 161.676 157.952 163.826 156.704C167.785 154.406 173.439 150.79 178.473 145.556C180.094 143.872 181.539 142.309 182.674 141.046C182.87 141.127 183.071 141.186 183.271 141.216C183.271 141.216 186.841 140.895 187.508 138.852C188.075 136.632 185.688 134.313 185.506 134.135Z" fill="#F7A58E"/>
<path d="M149.382 143.739C149.382 143.739 150.617 146.103 149.697 151.052C149.367 152.829 148.585 154.694 147.162 156.386C141.119 155.507 129.478 152.596 130.712 144.969C131.943 137.341 149.382 143.739 149.382 143.739Z" fill="#0386C2"/>
<path d="M125.681 141.227C125.681 141.227 117.084 142.575 110.578 151.093C114.411 157.328 120.117 160.268 120.117 160.268C120.117 160.268 129.93 153.346 130.905 147.588C131.88 141.829 125.681 141.227 125.681 141.227Z" fill="#0386C2"/>
<path d="M145.211 118.267C145.297 113.388 141.567 112.184 141.567 112.184C143.202 106.617 135.769 103.057 128.721 106.629C128.721 106.629 125.87 104.989 121.032 107.94C114.433 111.814 115.112 119.963 115.112 119.963C107.482 122.157 104.476 128.986 106.696 135.11C106.696 135.11 97.8025 138.486 99.3262 147.477C100.85 156.467 108.353 157.379 108.353 157.379C108.353 157.379 110.418 170.769 120.617 169.676C130.812 168.582 131.287 160.301 131.287 160.301C131.287 160.301 139.628 163.212 143.273 154.029C146.917 144.851 138.086 139.764 138.086 139.764C138.086 139.764 143.439 137.371 143.354 131.601C143.299 127.893 141.219 125.61 139.736 124.447C143.117 122.615 145.163 120.975 145.211 118.267Z" fill="#0D0D0D"/>
<path d="M253.735 155.474L255.089 159.732H259.474L255.927 162.366L257.283 166.621L253.735 163.991L250.191 166.621L251.544 162.366L247.997 159.732H252.382L253.735 155.474Z" fill="#DE7F04"/>
<path d="M269.458 155.474L270.811 159.732H275.193L271.649 162.366L273.002 166.621L269.458 163.991L265.91 166.621L267.263 162.366L263.719 159.732H268.101L269.458 155.474Z" fill="#DE7F04"/>
<path d="M285.177 155.474L286.534 159.732H290.916L287.368 162.366L288.725 166.621L285.177 163.991L281.633 166.621L282.986 162.366L279.438 159.732H283.824L285.177 155.474Z" fill="#DE7F04"/>
<path d="M300.9 155.474L302.253 159.732H306.635L303.091 162.366L304.444 166.621L300.9 163.991L297.352 166.621L298.705 162.366L295.161 159.732H299.543L300.9 155.474Z" fill="#DE7F04"/>
<path d="M277.596 124.229C282.729 124.229 286.89 120.075 286.89 114.95C286.89 109.826 282.729 105.672 277.596 105.672C272.463 105.672 268.301 109.826 268.301 114.95C268.301 120.075 272.463 124.229 277.596 124.229Z" fill="#029A65"/>
<path d="M283.772 110.097C281.436 110.821 278.519 113.447 276.869 116.324C276.391 115.157 274.919 114.249 274.204 114.112L272.472 116.439C273.844 116.808 275.494 118.197 275.939 119.804H278.037C278.637 118.005 280.235 113.672 284.332 110.854C284.198 110.544 283.813 110.138 283.772 110.097Z" fill="white"/>
<path d="M285.444 141.279H268.928C268.598 141.279 268.309 141.065 268.209 140.751L265.046 130.855C264.972 130.623 265.013 130.371 265.154 130.176C265.295 129.98 265.525 129.865 265.766 129.865H288.606C288.847 129.865 289.074 129.98 289.218 130.176C289.359 130.371 289.4 130.623 289.326 130.855L286.163 140.751C286.063 141.068 285.77 141.279 285.444 141.279ZM269.48 139.761H284.892L287.568 131.383H266.8L269.48 139.761Z" fill="#0D0D0D"/>
<path d="M284.087 145.471H270.003C269.584 145.471 269.247 145.131 269.247 144.71C269.247 144.289 269.584 143.949 270.003 143.949H283.535C284.454 143.927 284.873 143.284 284.94 142.631C284.999 142.043 284.777 141.449 284.387 141.279L289.144 126.327C289.244 126.013 289.537 125.799 289.863 125.799H294.783C295.202 125.799 295.539 126.138 295.539 126.559C295.539 126.981 295.202 127.32 294.783 127.32H290.416L286.056 141.197C287.212 143.111 285.633 145.471 284.087 145.471Z" fill="#0D0D0D"/>
<path d="M274.622 148.012C274.622 148.976 273.844 149.759 272.884 149.759C271.924 149.759 271.145 148.976 271.145 148.012C271.145 147.048 271.924 146.265 272.884 146.265C273.844 146.265 274.622 147.048 274.622 148.012Z" fill="#0D0D0D"/>
<path d="M283.375 148.012C283.375 148.976 282.597 149.759 281.637 149.759C280.676 149.759 279.898 148.976 279.898 148.012C279.898 147.048 280.676 146.265 281.637 146.265C282.597 146.265 283.375 147.048 283.375 148.012Z" fill="#0D0D0D"/>
<path d="M277.596 141.279C277.177 141.279 276.839 140.939 276.839 140.518V130.623C276.839 130.202 277.177 129.862 277.596 129.862C278.015 129.862 278.352 130.202 278.352 130.623V140.518C278.352 140.939 278.015 141.279 277.596 141.279Z" fill="#0D0D0D"/>
<path d="M273.38 141.279C273.036 141.279 272.724 141.039 272.643 140.688L270.407 130.792C270.315 130.382 270.57 129.976 270.978 129.884C271.386 129.791 271.79 130.046 271.883 130.456L274.118 140.352C274.211 140.762 273.955 141.168 273.547 141.26C273.492 141.275 273.436 141.279 273.38 141.279Z" fill="#0D0D0D"/>
<path d="M281.637 141.279C281.6 141.279 281.563 141.275 281.525 141.271C281.114 141.212 280.825 140.824 280.888 140.411L282.323 130.515C282.382 130.102 282.767 129.814 283.179 129.873C283.59 129.932 283.88 130.32 283.817 130.733L282.382 140.629C282.33 141.009 282.007 141.279 281.637 141.279Z" fill="#0D0D0D"/>
<path d="M287.023 136.396H267.364C266.945 136.396 266.607 136.056 266.607 135.635C266.607 135.214 266.945 134.874 267.364 134.874H287.023C287.442 134.874 287.78 135.214 287.78 135.635C287.78 136.056 287.442 136.396 287.023 136.396Z" fill="#0D0D0D"/>
<path d="M82.925 137.899C77.5346 137.858 66.9021 137.807 47.1792 137.807C44.1132 137.807 41.6256 135.332 41.6256 132.281V122.895C41.6256 119.844 44.1095 117.37 47.1755 117.37H82.3207C85.3867 117.37 87.8706 119.844 87.8706 122.895V133.012C87.8669 135.723 85.6499 137.921 82.925 137.899Z" fill="white"/>
<path d="M51.8689 127.631C51.8689 128.669 51.0237 129.507 49.9856 129.507C48.9439 129.507 48.1023 128.665 48.1023 127.631C48.1023 126.593 48.9476 125.754 49.9856 125.754C51.0237 125.754 51.8689 126.596 51.8689 127.631Z" fill="#B3B3B3"/>
<path d="M61.7081 127.631C61.7081 128.669 60.8628 129.507 59.8248 129.507C58.783 129.507 57.9415 128.665 57.9415 127.631C57.9415 126.593 58.7868 125.754 59.8248 125.754C60.8666 125.754 61.7081 126.596 61.7081 127.631Z" fill="#B3B3B3"/>
<path d="M71.551 127.631C71.551 128.669 70.7058 129.507 69.6677 129.507C68.626 129.507 67.7844 128.665 67.7844 127.631C67.7844 126.593 68.6297 125.754 69.6677 125.754C70.7058 125.754 71.551 126.596 71.551 127.631Z" fill="#B3B3B3"/>
<path d="M81.3902 127.631C81.3902 128.669 80.5449 129.507 79.5069 129.507C78.4651 129.507 77.6236 128.665 77.6236 127.631C77.6236 126.593 78.4688 125.754 79.5069 125.754C80.5486 125.754 81.3902 126.596 81.3902 127.631Z" fill="#B3B3B3"/>
<path d="M68.8447 134.22V142.753L57.9415 134.542L68.8447 134.22Z" fill="white"/>
</svg>
