<svg width="343" height="316" viewBox="0 0 343 316" fill="none" xmlns="http://www.w3.org/2000/svg">
<g clip-path="url(#clip0_85_1261)">
<path d="M170.251 315.997C257.912 315.997 328.975 245.258 328.975 157.998C328.975 70.7383 257.912 0 170.251 0C82.591 0 11.5282 70.7383 11.5282 157.998C11.5282 245.258 82.591 315.997 170.251 315.997Z" fill="#FEF3F0"/>
<path d="M64.7663 17.7324C64.7899 11.7719 59.9539 6.92092 53.9648 6.89745C47.9757 6.87397 43.1015 11.6869 43.078 17.6474C43.0544 23.6079 47.8904 28.4588 53.8794 28.4823C59.8685 28.5058 64.7427 23.6929 64.7663 17.7324Z" fill="#DBE6F1"/>
<path d="M342.858 81.0388C344.971 69.3473 323.067 63.4696 322.242 69.6626L282.319 62.3189C277.689 61.5171 273.194 64.986 272.27 70.0719L240.54 244.821C239.583 250.088 242.619 255.08 247.323 255.962L290.862 264.359C291.125 265.319 291.772 266.265 292.897 267.161C305.113 269.348 309.925 266.416 312.078 262.316C312.739 261.233 342.953 83.3335 342.858 81.0388Z" fill="#4D4D4D"/>
<path d="M292.166 267.06L238.535 256.938C233.658 256.033 230.511 250.903 231.498 245.482L264.277 65.7946C265.231 60.5678 269.884 57.0184 274.673 57.8604L326.919 66.962C331.748 67.8108 334.926 72.7591 334.016 78.0161L302.771 258.834C301.834 264.289 297.082 267.972 292.166 267.06Z" fill="#4D4D4D"/>
<path d="M293.483 265.946C293.15 265.933 292.813 265.892 292.483 265.832L238.892 255.627C234.703 254.845 231.977 250.353 232.836 245.619L265.558 66.1267C266.39 61.5641 270.437 58.4442 274.555 59.1621L326.811 68.1765C326.933 68.1966 327.051 68.2201 327.172 68.2469C329.086 68.6831 330.73 69.8807 331.809 71.6185C332.911 73.3966 333.308 75.5638 332.938 77.7209L301.642 258.72C300.897 263.014 297.403 266.121 293.483 265.946Z" fill="#0D0D0D"/>
<path d="M330.083 78.1538L310.36 192.053L298.848 258.515L235.35 246.599L235.873 243.737L268.031 67.0426L330.083 78.1538Z" fill="white"/>
<path d="M253.116 249.934L298.848 258.515L308.483 202.882L253.116 249.934Z" fill="#0776ED"/>
<path d="M288.769 182.902C290.993 170.06 286.637 158.593 279.04 157.289C271.443 155.985 263.481 165.339 261.258 178.181C259.034 191.022 263.39 202.49 270.986 203.794C278.583 205.098 286.545 195.744 288.769 182.902Z" fill="#0776ED" fill-opacity="0.3"/>
<path d="M292.93 183.616C295.826 166.889 290.153 151.952 280.258 150.253C270.363 148.555 259.993 160.738 257.096 177.466C254.199 194.193 259.873 209.131 269.768 210.829C279.663 212.527 290.033 200.344 292.93 183.616Z" stroke="#0776ED" stroke-opacity="0.5" stroke-width="3.0123" stroke-miterlimit="10"/>
<path d="M222.434 122.675C222.434 122.675 225.372 114.245 233.15 114.027C240.927 113.809 243.05 120.793 243.05 120.793C248.132 115.674 258.983 113.198 262.518 122.954C262.518 122.954 272.789 119.032 280.213 127.798C287.637 136.561 283.087 147.202 275.273 149.272C272.975 156.15 262.026 161.38 256.378 155.724C250.73 150.067 250.511 147.276 250.511 147.276C250.511 147.276 245.874 153.016 239.111 150.098C232.348 147.179 232.142 137.963 232.142 137.963C232.142 137.963 220.661 133.877 222.434 122.675Z" fill="#0D0D0D"/>
<path d="M240.183 161.702C238.582 164.49 224.129 182.7 217.8 183.753C214.703 184.27 206.602 184.629 199.141 184.867C196.853 184.937 194.629 184.995 192.627 185.048C187.808 185.169 184.277 185.219 184.277 185.219V179.553C187.107 179.258 189.911 178.812 192.627 178.325C193.979 178.08 195.306 177.829 196.604 177.574C203.623 176.205 209.8 174.876 214.002 175.564L227.121 154.952C232.398 146.555 244.398 154.355 240.183 161.702Z" fill="#E6765C"/>
<path d="M227.926 150.785L223.92 158.471L239.128 165.258C239.128 165.258 246.892 155.673 237.867 149.672C231.472 145.411 227.926 150.785 227.926 150.785Z" fill="#0386C2"/>
<path d="M268.092 193.579C265.507 190.473 259.468 181.727 259.468 181.727C259.468 181.727 236.961 178.932 231.266 173.92C228.466 170.455 227.815 165.691 227.576 159.102C227.539 158.233 227.515 157.334 227.495 156.398C227.192 143.757 233.648 141.681 239.825 142.771C244.61 143.616 249.227 146.357 250.393 147.555C251.889 149.095 268.469 165.255 268.469 165.255L276.884 169.046C281.723 176.537 276.54 197.072 268.092 193.579Z" fill="#0386C2"/>
<path d="M234.902 157.978L240.567 183.817C232.796 187.39 229.813 193.975 220.169 201.255C217.834 203.553 218.979 207.17 222.942 205.113C222.942 205.113 243.313 194.173 248.368 189.134C253.423 184.095 250.525 160.239 250.157 156.677C249.19 147.29 234.211 146.958 234.902 157.978Z" fill="#FFA794"/>
<path d="M228.978 153.758C228.408 152.889 227.633 151.651 226.794 150.292C224.516 146.579 221.81 142.006 221.81 142.006L228.459 136.105L229.581 135.108L236.621 143.754C239.788 146.736 231.104 156.999 228.978 153.758Z" fill="#FFA794"/>
<path d="M227.198 150.947C224.92 147.233 221.81 142.006 221.81 142.006L229.19 137.776C229.588 139.195 230.71 144.495 227.198 150.947Z" fill="#FA876E"/>
<path d="M235.141 163.725L251.835 160.662C251.835 160.662 251.637 145.079 240.321 147.635C231.32 149.668 235.141 163.725 235.141 163.725Z" fill="#0386C2"/>
<path d="M233.372 158.398C229.433 161.84 228.26 158.522 228.145 155.64C227.825 147.555 231.579 143.395 235.805 142.972C239.792 142.576 238.744 153.704 233.372 158.398Z" fill="#FFA794"/>
<path d="M216.526 209.126C216.526 209.126 212.156 214.171 211.738 213.816C211.316 213.457 213.035 210.213 215.283 207.371C217.746 204.264 218.781 206.881 216.526 209.126Z" fill="#DB8472"/>
<path d="M219.697 201.5C219.697 201.5 214.963 201.218 212.149 204.04C212.149 204.04 211.65 205.533 213.439 205.123C215.229 204.714 216.159 204.308 216.159 204.308C216.159 204.308 212.506 213.215 212.209 214.131C211.913 215.047 213.992 213.406 215.637 211.689C216.53 210.947 222.262 208.076 223.468 204.399C224.344 201.728 219.697 201.5 219.697 201.5Z" fill="#FFA794"/>
<path d="M215.64 211.752C215.626 211.752 215.61 211.746 215.6 211.736C215.573 211.712 215.569 211.672 215.593 211.645L218.936 207.841C218.959 207.814 219 207.811 219.027 207.834C219.054 207.858 219.057 207.898 219.033 207.925L215.691 211.729C215.674 211.742 215.657 211.752 215.64 211.752Z" fill="#87584C"/>
<path d="M218.952 148.471C226.133 147.974 231.453 140.386 230.834 131.523C230.214 122.66 223.89 115.878 216.709 116.376C209.527 116.873 204.208 124.461 204.827 133.324C205.446 142.187 211.77 148.969 218.952 148.471Z" fill="#FFA88F"/>
<path d="M212.647 123.041C212.668 122.716 215.963 132.498 231.205 130.485C235.448 120.961 223.65 106.435 212.358 117.774C209.001 115.922 200.439 119.089 202.369 127.48C196.681 132.099 200.465 137.89 204.341 135.061C204.337 135.061 212.155 131.351 212.647 123.041Z" fill="#0D0D0D"/>
<path d="M228.324 132.253C229.099 133.501 230.747 133.891 232.001 133.119C233.254 132.347 233.645 130.71 232.87 129.459C232.095 128.211 230.447 127.822 229.193 128.593C227.94 129.365 227.549 131.005 228.324 132.253Z" fill="#FFA88F"/>
<path d="M304.842 95.1751C305.876 89.2067 302.43 83.6325 297.144 82.7247C291.859 81.8169 286.736 85.9194 285.701 91.8878C284.667 97.8562 288.113 103.43 293.399 104.338C298.684 105.246 303.807 101.144 304.842 95.1751Z" fill="#029A65"/>
<path d="M302.616 88.9596C300.065 89.389 296.53 91.9353 294.252 94.9949C293.992 93.5523 292.665 92.2339 291.954 91.9454L289.703 94.3508C291.037 95.0251 292.459 96.9306 292.594 98.8865L294.754 99.2589C295.735 97.2695 298.255 92.5056 303.044 89.9459C302.966 89.5534 302.649 89.0133 302.616 88.9596Z" fill="white"/>
<path d="M271.93 107.824L272.267 110.917L275.01 111.39L272.476 112.829L272.813 115.922L270.909 113.718L268.371 115.161L269.729 112.359L267.825 110.155L270.568 110.625L271.93 107.824Z" fill="#FDDA6D"/>
<path d="M281.773 109.514L282.11 112.608L284.853 113.077L282.319 114.52L282.656 117.61L280.752 115.409L278.215 116.848L279.573 114.047L277.669 111.846L280.415 112.316L281.773 109.514Z" fill="#FDDA6D"/>
<path d="M291.617 111.202L291.954 114.295L294.7 114.768L292.162 116.207L292.499 119.3L290.596 117.096L288.058 118.539L289.419 115.738L287.512 113.534L290.259 114.003L291.617 111.202Z" fill="#FDDA6D"/>
<path d="M301.46 112.893L301.797 115.986L304.543 116.456L302.006 117.898L302.343 120.988L300.439 118.787L297.905 120.226L299.263 117.425L297.355 115.224L300.102 115.694L301.46 112.893Z" fill="#FDDA6D"/>
<path d="M311.303 114.58L311.64 117.673L314.387 118.146L311.849 119.586L312.19 122.679L310.282 120.475L307.748 121.917L309.106 119.116L307.202 116.912L309.945 117.385L311.303 114.58Z" fill="#FDDA6D"/>
<path d="M199.141 184.864C196.853 184.934 194.629 184.991 192.627 185.045V178.322C193.979 178.077 194.713 177.936 196.007 177.684L199.141 184.864Z" fill="#994E3D"/>
<path d="M0.0775136 78.4691C-1.47599 66.6903 20.6841 61.8527 21.2132 68.0792L61.4391 62.6276C66.0996 62.0473 70.4265 65.7241 71.1072 70.8469L94.4737 246.898C95.178 252.205 91.9093 257.046 87.1645 257.707L43.2756 264.041C42.9656 264.987 42.2748 265.903 41.1088 266.741C28.8021 268.352 22.5948 264.145 21.749 257.747C21.1492 256.633 -0.124677 80.7571 0.0775136 78.4691Z" fill="#4D4D4D"/>
<path d="M41.8502 266.674L95.9026 259.096C100.816 258.421 104.206 253.443 103.478 247.984L79.2926 66.952C78.5883 61.6883 74.1098 57.9209 69.2841 58.5348L16.664 65.1605C11.8013 65.7812 8.39098 70.5719 9.0481 75.8658L31.6429 257.955C32.327 263.447 36.8965 267.355 41.8502 266.674Z" fill="#4D4D4D"/>
<path d="M40.5865 265.5C40.9201 265.5 41.2571 265.476 41.5907 265.433L95.606 257.767C99.8284 257.183 102.767 252.825 102.13 248.058L77.9986 67.2237C77.3853 62.6276 73.4897 59.3198 69.3448 59.8432L16.7179 66.3817C16.5966 66.3985 16.4752 66.4152 16.3573 66.4354C14.423 66.7809 12.7246 67.8981 11.5654 69.5855C10.3792 71.3099 9.87708 73.4536 10.1467 75.6276L32.7853 257.898C33.3211 262.222 36.664 265.49 40.5865 265.5Z" fill="#0D0D0D"/>
<path d="M12.9773 76.1911L35.5856 257.821L99.579 248.917L75.4846 68.0188L12.9773 76.1911Z" fill="white"/>
<path d="M60.3843 98.1484L53.3245 99.071L27.0667 74.3493L34.1299 73.4268L60.3843 98.1484Z" fill="#F13005"/>
<path d="M53.3245 99.071L46.2681 99.9936L20.0068 75.2719L27.0667 74.3494L53.3245 99.071Z" fill="#F1E3E0"/>
<path d="M46.268 99.9936L39.2082 100.916L12.9503 76.1945L20.0068 75.272L46.268 99.9936Z" fill="#F13005"/>
<path d="M67.4407 97.2259L60.3843 98.1485L34.1298 73.4268L41.1829 72.5043L67.4407 97.2259Z" fill="#F1E3E0"/>
<path d="M81.557 95.3807L74.5006 96.3033L48.2461 71.5816L55.2992 70.6591L81.557 95.3807Z" fill="#F1E3E0"/>
<path d="M102.039 92.7036L95.6734 93.5356L69.4155 68.8139L75.7778 67.9819L102.039 92.7036Z" fill="#F13005"/>
<path d="M95.6734 93.5356L88.6169 94.4582L62.3624 69.7332L69.4155 68.814L95.6734 93.5356Z" fill="#F1E3E0"/>
<path d="M74.5006 96.3033L67.4407 97.2259L41.1829 72.5042L48.2461 71.5817L74.5006 96.3033Z" fill="#F13005"/>
<path d="M88.6169 94.4581L81.5571 95.3807L55.2992 70.6591L62.3624 69.7332L88.6169 94.4581Z" fill="#F13005"/>
<path d="M46.268 99.9935L46.8307 104.257C47.4272 108.78 40.3674 109.706 39.7709 105.18L39.2081 100.916L46.268 99.9935Z" fill="#D62B04"/>
<path d="M53.3245 99.071L53.8873 103.335C54.4838 107.857 47.4273 108.78 46.8308 104.258L46.2681 99.9936L53.3245 99.071Z" fill="#F1C5BC"/>
<path d="M60.3843 98.1484L60.9471 102.412C61.5435 106.935 54.4837 107.861 53.8872 103.335L53.3245 99.071L60.3843 98.1484Z" fill="#D62B04"/>
<path d="M67.4407 97.2258L68.0035 101.49C68.6 106.012 61.5435 106.935 60.947 102.412L60.3843 98.1484L67.4407 97.2258Z" fill="#F1C5BC"/>
<path d="M74.5006 96.3032L75.0634 100.567C75.6599 105.089 68.6 106.015 68.0036 101.49L67.4408 97.2258L74.5006 96.3032Z" fill="#D62B04"/>
<path d="M81.5571 95.3807L82.1198 99.6447C82.7163 104.167 75.6598 105.09 75.0634 100.567L74.5006 96.3033L81.5571 95.3807Z" fill="#F1C5BC"/>
<path d="M88.6168 94.4581L89.1796 98.7221C89.7761 103.244 82.7162 104.17 82.1198 99.6447L81.557 95.3807L88.6168 94.4581Z" fill="#D62B04"/>
<path d="M95.6734 93.5355L96.2362 97.7995C96.8326 102.322 89.7762 103.244 89.1797 98.7221L88.6169 94.4581L95.6734 93.5355Z" fill="#F1C5BC"/>
<path d="M102.039 92.7036L102.602 96.9676C103.198 101.49 96.8326 102.322 96.2361 97.7996L95.6733 93.5356L102.039 92.7036Z" fill="#D62B04"/>
<path d="M39.2082 100.916H39.7709L16.4314 103.952L12.9503 76.1945L39.2082 100.916Z" fill="#F1E3E0"/>
<path d="M11.8214 137.517C12.8222 137.4 13.5468 136.491 13.4288 135.494L8.14152 90.2143C8.02358 89.218 7.11035 88.4967 6.10951 88.6141C5.10866 88.7315 4.38414 89.6407 4.50209 90.637L9.78938 135.917C9.90732 136.91 10.8206 137.631 11.8214 137.517Z" fill="#0D0D0D"/>
<path d="M62.4994 222.039C70.1418 221.035 74.9493 209.748 73.2373 196.83C71.5252 183.911 63.9419 174.252 56.2994 175.256C48.657 176.259 43.8495 187.546 45.5615 200.465C47.2736 213.384 54.8569 223.042 62.4994 222.039Z" fill="#03E4E6"/>
<path d="M63.4373 229.116C73.3917 227.809 79.6534 213.107 77.4233 196.28C75.1932 179.452 65.3158 166.871 55.3614 168.178C45.407 169.485 39.1453 184.187 41.3754 201.015C43.6055 217.842 53.4829 230.424 63.4373 229.116Z" stroke="#03E4E6" stroke-width="3.0123" stroke-miterlimit="10"/>
<path d="M109.122 136.075L121.207 147.602L121.254 154.526C121.254 154.526 114.959 150.604 110.352 144.002C105.746 137.4 106.898 137.628 106.898 137.628L109.122 136.075Z" fill="#0D0D0D"/>
<path d="M116.614 150.732C121.84 157.136 133.527 168.912 133.527 168.912L158.592 174.303L159.815 181.237C159.815 181.237 138.454 181.67 131.229 180.559C124.388 179.506 107.016 170.133 101.247 165.399C90.4232 156.509 103.825 135.055 116.614 150.732Z" fill="#014C4D"/>
<path d="M60.418 181.734L57.0415 183.787C50.3152 186.89 50.3961 218.778 64.8157 216.637C74.7972 213.9 79.943 209.153 83.2151 204.788C83.7307 202 67.5082 181.314 60.418 181.734Z" fill="#0D0D0D"/>
<path d="M62.9117 179.674C80.8899 160.491 87.4543 146.817 97.7358 140.228C105.368 135.34 115.572 140.114 119.7 148.269C122.238 153.285 121.773 161.658 118.113 168.438C108.833 185.615 93.4729 200.836 86.5613 202.54C83.1005 202.544 65.2369 191.13 62.9117 179.674Z" fill="#027273"/>
<path d="M106.787 138.903L118.076 126.886L125.81 133.173L119.434 149.541L106.787 138.903Z" fill="#FFA794"/>
<path d="M138.464 130.804C138.464 130.804 138.13 131.586 137.561 132.727C136.297 135.283 133.854 139.614 131.33 140.932C130.214 141.523 127.252 141.127 123.919 139.788C116.398 136.759 107.03 128.892 113.136 116.597C119.293 104.197 132.203 106.703 135.822 112.215C137.854 115.318 139.781 117.751 138.989 126.708C142.248 130.673 140.088 130.875 138.464 130.804Z" fill="#FFA794"/>
<path d="M136.358 103.647C114.861 92.395 96.2058 118.895 113.769 132.867C113.769 132.867 115.33 131.408 118.208 129.258C113.355 126.869 116.924 119.301 121.81 121.293C123.205 121.756 124.405 123.175 124.624 124.621C124.62 124.581 124.634 124.702 124.647 124.883C125.089 124.826 125.544 124.826 125.719 124.749C125.894 115.55 126.733 112.219 126.733 112.219C126.733 112.219 133.844 114.772 137.173 115.469C146.342 116.902 150.43 100.936 136.358 103.647Z" fill="#994803"/>
<path d="M130.224 134.652C130.224 134.649 130.224 134.649 130.228 134.645C125.941 134.303 125.743 123.93 125.743 123.93L124.627 124.621C125.095 130.157 124.452 135.9 122.858 139.332C122.858 139.332 124.917 141.164 129.062 141.211C129.072 141.224 129.079 141.238 129.085 141.251C129.561 141.298 129.884 141.281 130.245 141.238C128.384 137.128 132.718 133.404 136.762 134.256C137.062 133.706 137.331 133.186 137.561 132.723C134.851 131.881 132.031 132.891 130.224 134.652Z" fill="#994803"/>
<path d="M89.2033 147.827C89.2033 147.827 100.007 139.543 107.798 151.396C116.863 165.184 87.1578 195.609 80.59 199.048L83.8419 201.037C91.6094 195.438 120.583 166.56 110.292 150.329C103.542 139.678 93.7189 143.693 93.7189 143.693L89.2033 147.827Z" fill="#0D0D0D"/>
<path d="M63.6194 179.036L60.4147 181.734C60.4147 181.734 63.3936 190.899 69.9817 196.465C76.5697 202.03 83.2117 204.788 83.2117 204.788L86.5613 202.54C86.5613 202.54 76.381 197.327 71.6767 191.765C66.9758 186.202 63.6194 179.036 63.6194 179.036Z" fill="#DB6704"/>
<path d="M79.943 198.86L83.4207 196.518L87.5184 198.917L84.0273 201.4L79.943 198.86Z" stroke="#DDC80A" stroke-width="2.326" stroke-miterlimit="10" stroke-linejoin="round"/>
<path d="M195.209 151.319H149.8V196.518H195.209V151.319Z" fill="#DB6704"/>
<path d="M175.677 151.416H169.328V162.185H175.677V151.416Z" fill="#FF851C"/>
<path d="M105.264 138.772L109.123 136.075C109.379 138.51 114.915 146.001 121.207 147.602L117.901 154.241C110.838 148.93 106.12 143.596 105.264 138.772Z" fill="#025859"/>
<path d="M149.136 180.023L157.783 181.502V186.145L148.843 187.111L149.136 180.023Z" fill="#FFA794"/>
<path d="M155.057 182.002C155.876 181.321 158.481 179.238 161.102 176.44C162.444 176.44 162.258 178.6 160.89 179.714C159.451 180.885 159.677 182.079 161.79 182.079C163.013 182.079 170.285 181.656 170.717 182.344C171.131 183.005 163.997 184.28 163.997 184.28C163.997 184.28 170.066 185.142 170.09 185.639C170.134 186.581 163.845 186.128 163.845 186.128C163.845 186.128 169.631 187.413 169.264 188.014C168.735 188.883 163.202 188.088 163.202 188.088C163.202 188.088 167.293 189.829 166.235 190.201C165.173 190.574 156.034 188.638 154.737 187.749C152.735 186.38 154.235 182.683 155.057 182.002Z" fill="#FFA794"/>
<path d="M88.6473 165.912C86.4973 162.544 85.1527 155.502 91.8318 150.047C99.0298 144.173 105.264 149.621 108.856 156.455C111.613 161.692 124.513 175.893 124.513 175.893L155.222 180.741L155.515 188.47C155.515 188.47 128.014 192.828 117.092 187.883C107.448 183.512 93.5639 173.608 88.6473 165.912Z" fill="#027273"/>
<path d="M193.183 185.595H181.625V194.895H193.183V185.595Z" fill="#FFCFA6"/>
<path d="M152.749 180.351L155.229 180.744L155.519 188.926L153.315 190.587L152.749 180.351Z" fill="#03B1B3"/>
<path d="M173.604 152.446L172.391 151.55C172.294 151.534 172.037 151.503 171.771 151.473C168.149 151.044 163.215 150.302 162.171 148.803C161.975 148.521 161.914 148.219 161.989 147.91C162.123 147.36 162.444 146.991 162.939 146.817C165.46 145.911 172.048 150.675 172.62 151.094C172.664 151.114 172.681 151.138 172.708 151.175L173.604 152.446ZM163.697 147.202C163.478 147.202 163.283 147.229 163.111 147.293C162.781 147.41 162.575 147.655 162.481 148.034C162.44 148.202 162.474 148.357 162.585 148.518C163.259 149.487 166.265 150.299 171.525 150.936C169.426 149.49 165.665 147.202 163.697 147.202Z" fill="black"/>
<path d="M172.759 151.319H172.25V196.518H172.759V151.319Z" fill="white"/>
<path d="M172.503 151.319C172.503 151.319 184.415 144.435 186.083 147.877C187.755 151.319 172.503 151.319 172.503 151.319Z" stroke="black" stroke-width="1.5062" stroke-miterlimit="10"/>
<path d="M172.503 151.319C172.503 151.319 185.227 159.864 182.167 163.239C179.104 166.613 172.503 151.319 172.503 151.319Z" stroke="white" stroke-width="1.5062" stroke-miterlimit="10"/>
<path d="M195.081 167.509H149.8C149.658 167.509 149.547 167.395 149.547 167.258C149.547 167.117 149.662 167.006 149.8 167.006H195.081C195.222 167.006 195.333 167.12 195.333 167.258C195.337 167.398 195.222 167.509 195.081 167.509Z" fill="white"/>
<path d="M55.9496 112.574C56.2596 114.902 54.8375 117.009 52.7752 117.281C50.7129 117.553 48.792 115.885 48.482 113.557C48.172 111.229 49.5941 109.122 51.6564 108.85C53.7188 108.579 55.6396 110.246 55.9496 112.574Z" fill="#029A65"/>
<path d="M54.4028 110.534C53.5098 110.987 52.4955 112.333 52.0069 113.728C51.744 113.225 51.1004 112.89 50.8038 112.863L50.2478 114.01C50.8207 114.107 51.5688 114.651 51.8451 115.355L52.6876 115.245C52.819 114.396 53.1998 112.343 54.6792 110.846C54.6016 110.712 54.423 110.551 54.4028 110.534Z" fill="white"/>
<path d="M33.7254 144.334L34.9689 147.186L37.7322 146.823L35.7406 148.95L36.9874 151.802L34.5106 150.262L32.519 152.389L32.9773 149.313L30.5005 147.773L33.2638 147.411L33.7254 144.334Z" fill="#FDDA6D"/>
<path d="M43.626 143.032L44.8728 145.884L47.6361 145.522L45.6445 147.649L46.8914 150.504L44.4145 148.964L42.423 151.087L42.8813 148.011L40.4044 146.471L43.1677 146.109L43.626 143.032Z" fill="#FDDA6D"/>
<path d="M53.5301 141.731L54.7769 144.586L57.5368 144.223L55.5452 146.347L56.7921 149.202L54.3152 147.662L52.3236 149.789L52.7853 146.713L50.3085 145.173L53.0718 144.811L53.5301 141.731Z" fill="#FDDA6D"/>
<path d="M63.434 140.432L64.6808 143.284L67.4407 142.922L65.4491 145.049L66.696 147.9L64.2192 146.36L62.2276 148.487L62.6892 145.411L60.2124 143.871L62.9723 143.509L63.434 140.432Z" fill="#FDDA6D"/>
<path d="M73.338 139.131L74.5849 141.986L77.3448 141.623L75.3532 143.747L76.6 146.602L74.1232 145.062L72.1316 147.189L72.5933 144.109L70.1165 142.573L72.8764 142.207L73.338 139.131Z" fill="#FDDA6D"/>
<path d="M59.0735 129.12L48.6707 130.486C48.4652 130.512 48.263 130.392 48.1686 130.187L45.2874 123.752C45.22 123.601 45.2234 123.427 45.2941 123.283C45.3649 123.139 45.4997 123.041 45.6513 123.021L60.0406 121.132C60.1922 121.112 60.3473 121.173 60.4551 121.293C60.5629 121.414 60.6101 121.582 60.5831 121.743L59.4778 128.701C59.4441 128.922 59.279 129.093 59.0735 129.12ZM48.8797 129.412L58.5882 128.137L59.525 122.246L46.4433 123.964L48.8797 129.412Z" fill="#0D0D0D"/>
<path d="M58.5916 132.066L49.7188 133.23C49.4559 133.263 49.2133 133.062 49.1729 132.777C49.1358 132.492 49.3178 132.233 49.5806 132.2L58.1063 131.079C58.686 130.989 58.8882 130.519 58.8713 130.07C58.8578 129.667 58.6624 129.281 58.3995 129.201L60.0541 118.687C60.0878 118.465 60.2529 118.298 60.4619 118.271L63.5588 117.865C63.8216 117.831 64.0642 118.032 64.1047 118.318C64.1417 118.603 63.9598 118.861 63.6969 118.895L60.9471 119.257L59.4476 129.013C60.3507 130.21 59.5689 131.938 58.5916 132.066Z" fill="#0D0D0D"/>
<path d="M52.8595 134.572C52.9471 135.226 52.5259 135.816 51.9193 135.897C51.3127 135.977 50.7533 135.511 50.6657 134.86C50.5781 134.206 50.9993 133.616 51.6059 133.535C52.2125 133.455 52.7719 133.918 52.8595 134.572Z" fill="#0D0D0D"/>
<path d="M58.3725 133.847C58.4602 134.501 58.0389 135.092 57.4323 135.172C56.8258 135.253 56.2664 134.786 56.1788 134.136C56.0912 133.481 56.5124 132.891 57.119 132.81C57.7255 132.73 58.2883 133.196 58.3725 133.847Z" fill="#0D0D0D"/>
<path d="M54.1298 129.768C53.867 129.801 53.6244 129.6 53.5839 129.315L52.6977 122.619C52.6606 122.333 52.8426 122.075 53.1054 122.041C53.3683 122.008 53.6109 122.209 53.6513 122.494L54.5376 129.191C54.5747 129.476 54.3927 129.734 54.1298 129.768Z" fill="#0D0D0D"/>
<path d="M51.4744 130.116C51.2554 130.147 51.0397 130.009 50.9589 129.778L48.664 123.266C48.5696 122.998 48.6943 122.699 48.9403 122.605C49.1897 122.508 49.466 122.649 49.5604 122.917L51.8552 129.429C51.9496 129.697 51.8249 129.996 51.5789 130.09C51.5418 130.103 51.5081 130.113 51.4744 130.116Z" fill="#0D0D0D"/>
<path d="M56.6741 129.435C56.6505 129.439 56.6269 129.439 56.6033 129.439C56.3371 129.432 56.1214 129.194 56.1248 128.909L56.1416 122.092C56.1416 121.807 56.3573 121.579 56.6235 121.585C56.8897 121.592 57.1054 121.83 57.102 122.115L57.0852 128.932C57.0852 129.194 56.9066 129.402 56.6741 129.435Z" fill="#0D0D0D"/>
<path d="M59.6295 125.681L47.2453 127.308C46.9824 127.342 46.7398 127.141 46.6994 126.856C46.6623 126.57 46.8443 126.312 47.1071 126.279L59.4913 124.651C59.7542 124.618 59.9968 124.819 60.0372 125.104C60.0777 125.39 59.8923 125.648 59.6295 125.681Z" fill="#0D0D0D"/>
<path d="M226.888 97.8095C221.989 97.7726 212.324 97.7256 194.396 97.7256C191.61 97.7256 189.348 95.4779 189.348 92.7068V84.1823C189.348 81.4112 191.606 79.1635 194.393 79.1635H226.339C229.126 79.1635 231.384 81.4112 231.384 84.1823V93.3711C231.381 95.8369 229.365 97.8296 226.888 97.8095Z" fill="#F13005"/>
<path d="M198.659 88.4865C198.659 89.4292 197.891 90.1907 196.947 90.1907C196 90.1907 195.235 89.4258 195.235 88.4865C195.235 87.5438 196.004 86.7822 196.947 86.7822C197.891 86.7822 198.659 87.5438 198.659 88.4865Z" fill="white"/>
<path d="M207.603 88.4865C207.603 89.4292 206.835 90.1907 205.891 90.1907C204.947 90.1907 204.179 89.4258 204.179 88.4865C204.179 87.5438 204.947 86.7822 205.891 86.7822C206.835 86.7822 207.603 87.5438 207.603 88.4865Z" fill="white"/>
<path d="M216.55 88.4865C216.55 89.4292 215.781 90.1907 214.838 90.1907C213.894 90.1907 213.126 89.4258 213.126 88.4865C213.126 87.5438 213.894 86.7822 214.838 86.7822C215.781 86.7822 216.55 87.5438 216.55 88.4865Z" fill="white"/>
<path d="M225.493 88.4865C225.493 89.4292 224.725 90.1907 223.781 90.1907C222.835 90.1907 222.07 89.4258 222.07 88.4865C222.07 87.5438 222.838 86.7822 223.781 86.7822C224.728 86.7822 225.493 87.5438 225.493 88.4865Z" fill="white"/>
<path d="M214.09 94.4681V102.218L204.179 94.76L214.09 94.4681Z" fill="#F13005"/>
<path d="M328.87 136.004C327.876 135.833 327.206 134.887 327.377 133.897L335.158 88.9763C335.33 87.9866 336.281 87.319 337.275 87.4901C338.269 87.6612 338.939 88.6073 338.768 89.597L330.987 134.518C330.818 135.508 329.864 136.175 328.87 136.004Z" fill="#0D0D0D"/>
<path d="M198.717 226.614H149.655V250.323H198.717V226.614Z" fill="#FFA305"/>
<path d="M191.66 236.753H157.507V240.53H191.66V236.753Z" fill="#0E0E0E"/>
<path d="M192.732 262.96L168.415 263.189C162.157 263.189 168.283 238.467 162.157 238.467H186.474C192.728 238.467 187.754 262.96 192.732 262.96Z" fill="white"/>
<path d="M176.462 252.836C175.468 252.836 174.029 254.231 173.439 257.556C172.472 263.017 168.411 263.185 168.411 263.185C168.411 263.185 192.219 262.937 196.526 262.937C199.097 262.937 198.167 257.734 198.531 255.375C198.784 253.745 199.869 253.044 200.523 252.832H176.462V252.836Z" fill="#0E0E0E"/>
<path d="M205.49 277.557H181.173C180.769 264.349 180.007 252.675 176.462 252.836C176.893 252.493 190.912 252.641 200.695 252.752C205.315 252.738 205.49 268.734 205.49 277.557Z" fill="white"/>
<path d="M201.059 256.824H182.225C182.073 256.824 181.948 256.7 181.948 256.549C181.948 256.398 182.073 256.274 182.225 256.274H201.059C201.21 256.274 201.335 256.398 201.335 256.549C201.335 256.704 201.21 256.824 201.059 256.824Z" fill="#0E0E0E"/>
<path d="M201.716 258.925H182.882C182.73 258.925 182.605 258.8 182.605 258.649C182.605 258.499 182.73 258.374 182.882 258.374H201.716C201.867 258.374 201.992 258.499 201.992 258.649C201.992 258.8 201.867 258.925 201.716 258.925Z" fill="#0E0E0E"/>
<path d="M202.147 261.021H183.313C183.161 261.021 183.037 260.897 183.037 260.746C183.037 260.595 183.161 260.471 183.313 260.471H202.147C202.299 260.471 202.423 260.595 202.423 260.746C202.423 260.901 202.299 261.021 202.147 261.021Z" fill="#0E0E0E"/>
<path d="M202.43 263.46H183.596C183.444 263.46 183.32 263.336 183.32 263.185C183.32 263.034 183.444 262.91 183.596 262.91H202.43C202.582 262.91 202.706 263.034 202.706 263.185C202.703 263.34 202.582 263.46 202.43 263.46Z" fill="#0E0E0E"/>
</g>
<defs>
<clipPath id="clip0_85_1261">
<rect width="343" height="316" fill="white"/>
</clipPath>
</defs>
</svg>
