<svg width="343" height="300" viewBox="0 0 343 300" fill="none" xmlns="http://www.w3.org/2000/svg">
<g clip-path="url(#clip0_85_820)">
<path d="M306.348 297.083C329.294 268.512 343 232.383 343 193.093C343 100.575 267.037 25.5757 173.329 25.5757C79.6211 25.5757 3.6579 100.575 3.6579 193.093C3.6579 232.387 17.3644 268.516 40.3099 297.083H306.348Z" fill="#FEF3F0"/>
<path d="M43.8786 49.1486C50.3972 49.1486 55.6815 43.9325 55.6815 37.498C55.6815 31.0635 50.3972 25.8473 43.8786 25.8473C37.3601 25.8473 32.0757 31.0635 32.0757 37.498C32.0757 43.9325 37.3601 49.1486 43.8786 49.1486Z" fill="#DBE6F1"/>
<path d="M87.6975 222.145H60.8641V256.166H87.6975V222.145Z" fill="#FFA305"/>
<path d="M87.6975 256.163V222.145H103.451L103.205 256.163H87.6975Z" fill="#DE7F04"/>
<path d="M74.8933 222.145H70.8845V229.888H74.8933V222.145Z" fill="#FFC766"/>
<path d="M48.4781 256.163V222.145H60.8642L60.6698 256.163H48.4781Z" fill="#DE7F04"/>
<path d="M62.3313 195.606H42.452V222.145H62.3313V195.606Z" fill="#DE7F04"/>
<path d="M44.7736 222.145V195.606H29.1122L29.3176 222.145H44.7736Z" fill="#FFA305"/>
<path d="M54.5152 195.606H51.3866V201.647H54.5152V195.606Z" fill="#FFC766"/>
<path d="M95.4292 195.606H75.5499V222.145H95.4292V195.606Z" fill="#FFA305"/>
<path d="M75.5499 222.145V195.606H62.2065L62.4156 222.145H75.5499Z" fill="#FFA305"/>
<path d="M95.4292 195.606H83.5053V222.145H95.4292V195.606Z" fill="#DE7F04"/>
<path d="M49.1309 222.145H21.3329V256.166H49.1309V222.145Z" fill="#FFA305"/>
<path d="M37.2364 222.145H33.2275V229.888H37.2364V222.145Z" fill="#FFC766"/>
<path d="M74.2808 195.606H71.1522V201.647H74.2808V195.606Z" fill="#FFC766"/>
<path d="M77.1014 169.512H57.222V196.052H77.1014V169.512Z" fill="#DE7F04"/>
<path d="M59.54 196.048V169.512H43.8787L44.0877 196.048H59.54Z" fill="#FFA305"/>
<path d="M69.2817 169.512H66.1531V175.553H69.2817V169.512Z" fill="#FFC766"/>
<path d="M105.884 289.792C105.91 285.373 102.304 281.771 97.8293 281.745C93.3546 281.719 89.7061 285.28 89.68 289.699C89.654 294.117 93.2603 297.72 97.735 297.745C102.21 297.771 105.858 294.21 105.884 289.792Z" fill="#4D4D4D"/>
<path d="M102.653 289.795C102.68 287.127 100.512 284.943 97.8099 284.916C95.108 284.889 92.8957 287.031 92.8687 289.698C92.8417 292.366 95.0101 294.551 97.7121 294.577C100.414 294.604 102.626 292.463 102.653 289.795Z" fill="#BDBDBD"/>
<path d="M85.9971 289.79C86.0222 285.372 82.4152 281.77 77.9405 281.745C73.4659 281.72 69.818 285.282 69.7929 289.7C69.7677 294.119 73.3747 297.721 77.8494 297.745C82.3241 297.77 85.9719 294.209 85.9971 289.79Z" fill="#4D4D4D"/>
<path d="M82.7963 289.789C82.8218 287.121 80.6519 284.937 77.9497 284.912C75.2475 284.887 73.0362 287.029 73.0107 289.698C72.9852 292.366 75.155 294.549 77.8573 294.574C80.5595 294.6 82.7708 292.457 82.7963 289.789Z" fill="#BDBDBD"/>
<path d="M41.7919 289.79C41.8173 285.372 38.2104 281.77 33.7357 281.745C29.2611 281.72 25.6131 285.281 25.5877 289.699C25.5623 294.118 29.1691 297.72 33.6438 297.745C38.1185 297.77 41.7665 294.209 41.7919 289.79Z" fill="#4D4D4D"/>
<path d="M38.5909 289.789C38.6164 287.121 36.4465 284.938 33.7443 284.913C31.042 284.887 28.8308 287.03 28.8053 289.698C28.7798 292.366 30.9497 294.55 33.6519 294.575C36.3542 294.6 38.5654 292.458 38.5909 289.789Z" fill="#BDBDBD"/>
<path d="M26.8619 289.791C26.8875 285.373 23.2808 281.771 18.8061 281.746C14.3314 281.721 10.6833 285.282 10.6577 289.701C10.6321 294.119 14.2388 297.721 18.7135 297.746C23.1882 297.771 26.8363 294.209 26.8619 289.791Z" fill="#4D4D4D"/>
<path d="M23.6611 289.792C23.6871 287.124 21.5175 284.94 18.8153 284.914C16.1131 284.889 13.9015 287.031 13.8755 289.699C13.8495 292.367 16.019 294.551 18.7212 294.577C21.4234 294.602 23.6351 292.46 23.6611 289.792Z" fill="#BDBDBD"/>
<path d="M97.4905 287.566L102.361 285.172V278.106H109.257V286.237L99.5224 291.042C96.4782 292.111 95.1284 288.641 97.4905 287.566Z" fill="#4D4D4D"/>
<path d="M77.6038 287.566L82.4746 285.172V278.106H89.37V286.237L79.6358 291.042C76.5915 292.111 75.2418 288.641 77.6038 287.566Z" fill="#4D4D4D"/>
<path d="M33.3962 287.566L38.267 285.172V278.106H45.1624V286.237L35.4281 291.042C32.3875 292.111 31.0341 288.641 33.3962 287.566Z" fill="#4D4D4D"/>
<path d="M18.4683 287.566L23.3391 285.172V278.106H30.2345V286.237L20.5003 291.042C17.456 292.111 16.1026 288.641 18.4683 287.566Z" fill="#4D4D4D"/>
<path d="M50.2752 256.558C50.1432 256.521 50.0111 256.456 49.8938 256.366C49.7067 256.224 49.5747 256.043 49.5453 255.873L39.4149 201.6C39.3709 201.361 39.5213 201.194 39.7891 201.194L123.224 200.821C123.414 200.821 123.642 200.919 123.825 201.082C124.008 201.245 124.118 201.448 124.118 201.622L124.269 256.224C124.269 256.42 124.126 256.543 123.906 256.543L50.5099 256.587C50.4293 256.594 50.3522 256.579 50.2752 256.558ZM40.8674 202.371L50.7557 255.464L123.033 255.475L122.875 201.937L40.8674 202.371Z" fill="#4D4D4D"/>
<path d="M43.7135 220.49L43.3394 219.795L123.381 218.922L123.704 219.581L43.7135 220.49Z" fill="#4D4D4D"/>
<path d="M47.1466 238.931L46.7872 238.247L123.44 237.504L123.752 238.156L47.1466 238.931Z" fill="#4D4D4D"/>
<path d="M56.8148 256.195C56.7011 256.163 56.6021 256.069 56.5837 255.978L46.457 201.694C46.4387 201.596 46.5231 201.542 46.6441 201.575C46.7651 201.607 46.8788 201.712 46.8972 201.81L57.0165 256.076C57.0349 256.17 56.9542 256.228 56.8368 256.199C56.8258 256.199 56.8185 256.199 56.8148 256.195Z" fill="#4D4D4D"/>
<path d="M62.9069 256.196C62.7932 256.163 62.6942 256.069 62.6758 255.978L53.4661 201.662C53.4514 201.564 53.5321 201.513 53.6531 201.546C53.7705 201.578 53.8842 201.687 53.8989 201.785L63.0976 256.083C63.1123 256.177 63.0316 256.232 62.9142 256.203C62.9142 256.196 62.9106 256.196 62.9069 256.196Z" fill="#4D4D4D"/>
<path d="M69.0028 256.192C68.8891 256.159 68.79 256.062 68.7754 255.971L60.4899 201.622C60.4752 201.524 60.5596 201.473 60.6769 201.509C60.798 201.546 60.9043 201.651 60.919 201.748L69.1972 256.08C69.2118 256.174 69.1275 256.224 69.0138 256.196C69.0101 256.196 69.0064 256.192 69.0028 256.192Z" fill="#4D4D4D"/>
<path d="M75.1096 256.192C74.9959 256.159 74.8969 256.061 74.8822 255.971L67.521 201.589C67.5063 201.495 67.5944 201.444 67.7117 201.48C67.8291 201.513 67.9355 201.622 67.9501 201.719L75.304 256.083C75.315 256.177 75.2343 256.228 75.117 256.195C75.1133 256.192 75.1096 256.192 75.1096 256.192Z" fill="#4D4D4D"/>
<path d="M81.2202 256.188C81.1065 256.156 81.0074 256.058 80.9964 255.967L74.5595 201.553C74.5485 201.459 74.6329 201.412 74.7502 201.448C74.8713 201.484 74.9703 201.593 74.9813 201.687L81.4072 256.083C81.4219 256.17 81.3375 256.221 81.2202 256.188C81.2238 256.188 81.2202 256.188 81.2202 256.188Z" fill="#4D4D4D"/>
<path d="M87.338 256.188C87.2243 256.156 87.1252 256.054 87.1142 255.964L81.6052 201.517C81.5942 201.422 81.6823 201.375 81.7996 201.415C81.917 201.451 82.016 201.56 82.027 201.654L87.525 256.083C87.536 256.17 87.4517 256.221 87.338 256.188Z" fill="#4D4D4D"/>
<path d="M93.4595 256.185C93.3458 256.152 93.2468 256.051 93.2394 255.96L88.6621 201.48C88.6547 201.386 88.7391 201.343 88.8528 201.383C88.8528 201.383 88.8528 201.383 88.8565 201.383C88.9702 201.422 89.0692 201.527 89.0802 201.622L93.6502 256.083C93.6576 256.17 93.5732 256.217 93.4595 256.185Z" fill="#4D4D4D"/>
<path d="M99.592 256.181H99.5883C99.4746 256.145 99.3792 256.047 99.3756 255.956L95.7298 201.441C95.7225 201.35 95.8068 201.307 95.9242 201.346C96.0379 201.386 96.1369 201.491 96.1406 201.585L99.779 256.08C99.7864 256.17 99.702 256.214 99.592 256.181Z" fill="#4D4D4D"/>
<path d="M105.728 256.182C105.725 256.182 105.725 256.182 105.721 256.178C105.611 256.142 105.515 256.041 105.512 255.954L102.801 201.405C102.798 201.315 102.886 201.271 102.996 201.315C103.109 201.355 103.205 201.463 103.208 201.554L105.912 256.081C105.919 256.171 105.835 256.215 105.728 256.182Z" fill="#4D4D4D"/>
<path d="M111.872 256.178C111.868 256.178 111.864 256.174 111.861 256.174C111.751 256.138 111.659 256.037 111.655 255.95L109.884 201.369C109.88 201.278 109.968 201.238 110.082 201.282C110.192 201.322 110.287 201.43 110.287 201.521L112.055 256.084C112.059 256.167 111.978 256.21 111.872 256.178Z" fill="#4D4D4D"/>
<path d="M118.019 256.177C118.015 256.177 118.012 256.174 118.008 256.174C117.898 256.138 117.81 256.036 117.806 255.949L116.974 201.336C116.974 201.245 117.062 201.209 117.172 201.252C117.282 201.296 117.373 201.401 117.373 201.491L118.202 256.087C118.206 256.166 118.125 256.206 118.019 256.177Z" fill="#4D4D4D"/>
<path d="M11.4042 256.576C11.3309 256.536 11.2538 256.46 11.1805 256.362C11.0668 256.203 10.9788 256 10.9421 255.808L1.00975 201.879C0.969408 201.665 1.02809 201.524 1.1528 201.52L40.1485 201.187C40.2366 201.187 40.3613 201.274 40.4713 201.415C40.5813 201.56 40.6657 201.737 40.6914 201.893L50.411 256.239C50.4513 256.456 50.3999 256.597 50.2826 256.597L11.5253 256.612C11.4886 256.612 11.4446 256.597 11.4042 256.576ZM1.75064 202.563L11.5363 255.355L49.6151 255.406L40.1595 202.179L1.75064 202.563Z" fill="#4D4D4D"/>
<path d="M4.76191 221.236L4.51984 220.57L43.3285 219.748L43.5963 220.374L4.76191 221.236Z" fill="#4D4D4D"/>
<path d="M8.1216 239.656L7.87219 238.946L46.5745 238.207L46.8496 238.877L8.1216 239.656Z" fill="#4D4D4D"/>
<path d="M14.8116 256.17C14.7493 256.134 14.6832 256.029 14.6649 255.928L4.31444 201.962C4.2961 201.875 4.33278 201.828 4.39147 201.857C4.45015 201.886 4.5125 201.98 4.53084 202.067L14.8996 256.036C14.9216 256.141 14.885 256.206 14.8189 256.174C14.8189 256.174 14.8153 256.174 14.8116 256.17Z" fill="#4D4D4D"/>
<path d="M18.0245 256.174C17.9622 256.137 17.8961 256.032 17.8778 255.927L7.59704 201.929C7.58237 201.842 7.61538 201.795 7.67406 201.828C7.73275 201.857 7.7951 201.951 7.80977 202.038L18.1125 256.043C18.1309 256.148 18.0979 256.21 18.0318 256.177C18.0282 256.174 18.0282 256.174 18.0245 256.174Z" fill="#4D4D4D"/>
<path d="M21.2412 256.174C21.1788 256.138 21.1128 256.029 21.0908 255.928L10.8834 201.897C10.8687 201.81 10.9018 201.767 10.9604 201.796C11.0191 201.825 11.0815 201.919 11.0961 202.006L21.3292 256.047C21.3476 256.152 21.3109 256.21 21.2485 256.177C21.2449 256.174 21.2412 256.174 21.2412 256.174Z" fill="#4D4D4D"/>
<path d="M24.4615 256.174C24.3991 256.138 24.3295 256.029 24.3111 255.928L14.1697 201.864C14.1551 201.781 14.1881 201.738 14.2468 201.767C14.3054 201.796 14.3678 201.893 14.3825 201.977L24.5459 256.047C24.5679 256.152 24.5312 256.21 24.4615 256.174C24.4615 256.177 24.4615 256.174 24.4615 256.174Z" fill="#4D4D4D"/>
<path d="M27.6855 256.174C27.6195 256.137 27.5535 256.025 27.5351 255.924L17.4634 201.835C17.4488 201.752 17.4818 201.708 17.5405 201.741C17.5991 201.774 17.6578 201.868 17.6762 201.951L27.7699 256.054C27.7882 256.156 27.7515 256.21 27.6855 256.174C27.6855 256.177 27.6855 256.177 27.6855 256.174Z" fill="#4D4D4D"/>
<path d="M30.9131 256.177C30.8471 256.141 30.7811 256.029 30.7627 255.927L20.7607 201.803C20.7461 201.719 20.7791 201.68 20.8378 201.712C20.8964 201.745 20.9551 201.839 20.9698 201.922L30.9938 256.058C31.0158 256.159 30.9791 256.214 30.9131 256.177Z" fill="#4D4D4D"/>
<path d="M34.1444 256.177C34.0784 256.137 34.0124 256.025 33.9904 255.924L24.0617 201.77C24.047 201.687 24.08 201.651 24.1387 201.683C24.1974 201.716 24.2561 201.81 24.2708 201.893L34.2251 256.061C34.2434 256.163 34.2068 256.214 34.1444 256.177Z" fill="#4D4D4D"/>
<path d="M37.3794 256.177C37.3758 256.177 37.3794 256.177 37.3794 256.177C37.3134 256.138 37.2437 256.025 37.2254 255.924L27.3664 201.738C27.3518 201.658 27.3848 201.618 27.4471 201.654C27.5058 201.69 27.5645 201.785 27.5792 201.864L37.4638 256.065C37.4785 256.163 37.4418 256.214 37.3794 256.177Z" fill="#4D4D4D"/>
<path d="M40.6181 256.182C40.6181 256.182 40.6144 256.182 40.6144 256.178C40.5484 256.139 40.4824 256.026 40.464 255.925L30.6747 201.706C30.6601 201.626 30.6967 201.59 30.7554 201.626C30.8141 201.662 30.8728 201.757 30.8875 201.836L40.6988 256.07C40.7171 256.168 40.6804 256.215 40.6181 256.182Z" fill="#4D4D4D"/>
<path d="M43.8603 256.182C43.8603 256.182 43.8567 256.178 43.853 256.178C43.787 256.138 43.721 256.026 43.7026 255.924L33.983 201.673C33.9684 201.593 34.005 201.557 34.0637 201.597C34.1224 201.633 34.1811 201.727 34.1958 201.807L43.9374 256.073C43.9557 256.167 43.9227 256.214 43.8603 256.182Z" fill="#4D4D4D"/>
<path d="M47.1063 256.181C47.1027 256.181 47.1027 256.177 47.099 256.177C47.033 256.134 46.9669 256.022 46.9486 255.924L37.3024 201.64C37.2877 201.56 37.3244 201.527 37.3831 201.564C37.4417 201.6 37.5004 201.694 37.5151 201.774L47.187 256.072C47.2017 256.17 47.1687 256.214 47.1063 256.181Z" fill="#4D4D4D"/>
<path d="M85.8086 256.558C85.7426 256.518 85.6803 256.442 85.6252 256.34C85.5372 256.181 85.4859 255.974 85.4822 255.783L84.6313 201.39C84.6276 201.176 84.7083 201.031 84.833 201.028L123.55 200.709C123.638 200.709 123.744 200.796 123.832 200.941C123.917 201.086 123.972 201.267 123.972 201.422L124.54 256.239C124.544 256.46 124.471 256.601 124.353 256.601L85.926 256.594C85.8857 256.594 85.8453 256.583 85.8086 256.558ZM85.2511 202.078L86.1461 255.326L123.891 255.395L123.396 201.708L85.2511 202.078Z" fill="#4D4D4D"/>
<path d="M85.1191 220.91L84.9907 220.24L123.601 219.429L123.763 220.063L85.1191 220.91Z" fill="#4D4D4D"/>
<path d="M85.3758 239.492L85.2474 238.775L123.741 238.047L123.906 238.725L85.3758 239.492Z" fill="#4D4D4D"/>
<path d="M89.2563 256.152C89.2013 256.116 89.1536 256.011 89.1499 255.906L87.8919 201.473C87.8882 201.386 87.9322 201.339 87.9872 201.364C88.0423 201.393 88.0863 201.487 88.0899 201.574L89.37 256.014C89.3737 256.123 89.326 256.184 89.2673 256.152C89.26 256.155 89.2563 256.155 89.2563 256.152Z" fill="#4D4D4D"/>
<path d="M92.4399 256.155C92.3849 256.119 92.3372 256.011 92.3335 255.909L91.1488 201.444C91.1452 201.357 91.1892 201.31 91.2442 201.339C91.2955 201.368 91.3432 201.462 91.3432 201.549L92.5463 256.021C92.5499 256.126 92.5022 256.188 92.4436 256.155H92.4399Z" fill="#4D4D4D"/>
<path d="M95.6272 256.155C95.5686 256.119 95.5245 256.011 95.5209 255.906L94.4132 201.411C94.4132 201.324 94.4536 201.281 94.5086 201.31C94.5636 201.343 94.6076 201.437 94.6076 201.52L95.7373 256.025C95.7409 256.13 95.6933 256.192 95.6346 256.155C95.6309 256.159 95.6309 256.159 95.6272 256.155Z" fill="#4D4D4D"/>
<path d="M98.8218 256.159C98.7631 256.123 98.7155 256.01 98.7155 255.909L97.6812 201.382C97.6812 201.295 97.7215 201.252 97.7728 201.285C97.8242 201.313 97.8719 201.411 97.8719 201.498L98.9282 256.032C98.9282 256.137 98.8842 256.195 98.8218 256.159Z" fill="#4D4D4D"/>
<path d="M102.016 256.163C101.958 256.126 101.91 256.014 101.91 255.913L100.949 201.353C100.949 201.27 100.99 201.227 101.041 201.259C101.096 201.292 101.136 201.386 101.14 201.473L102.123 256.043C102.123 256.141 102.079 256.199 102.016 256.163Z" fill="#4D4D4D"/>
<path d="M105.215 256.163C105.156 256.126 105.108 256.014 105.105 255.909L104.221 201.317C104.221 201.234 104.261 201.194 104.313 201.227C104.364 201.259 104.408 201.353 104.412 201.44L105.317 256.043C105.321 256.148 105.273 256.203 105.215 256.163C105.218 256.163 105.215 256.163 105.215 256.163Z" fill="#4D4D4D"/>
<path d="M108.42 256.166C108.362 256.126 108.314 256.014 108.31 255.913L107.5 201.288C107.5 201.205 107.54 201.165 107.592 201.201C107.643 201.237 107.687 201.332 107.687 201.415L108.519 256.05C108.523 256.152 108.479 256.202 108.42 256.166Z" fill="#4D4D4D"/>
<path d="M111.626 256.17C111.626 256.166 111.626 256.17 111.626 256.17C111.567 256.13 111.516 256.014 111.516 255.913L110.779 201.256C110.779 201.172 110.815 201.136 110.871 201.172C110.922 201.209 110.966 201.303 110.966 201.386L111.721 256.054C111.729 256.156 111.685 256.206 111.626 256.17Z" fill="#4D4D4D"/>
<path d="M114.839 256.171C114.839 256.171 114.835 256.171 114.835 256.167C114.777 256.127 114.729 256.011 114.729 255.914L114.069 201.224C114.069 201.144 114.109 201.104 114.16 201.144C114.212 201.181 114.256 201.275 114.256 201.358L114.938 256.062C114.938 256.16 114.894 256.207 114.839 256.171Z" fill="#4D4D4D"/>
<path d="M118.052 256.174L118.048 256.17C117.99 256.131 117.942 256.015 117.942 255.917L117.359 201.195C117.359 201.115 117.399 201.079 117.45 201.115C117.502 201.151 117.546 201.245 117.546 201.329L118.151 256.065C118.151 256.163 118.107 256.21 118.052 256.174Z" fill="#4D4D4D"/>
<path d="M121.272 256.177C121.269 256.177 121.269 256.174 121.265 256.174C121.206 256.13 121.162 256.018 121.159 255.92L120.649 201.165C120.649 201.085 120.689 201.053 120.74 201.089C120.792 201.125 120.836 201.223 120.836 201.303L121.368 256.072C121.368 256.166 121.327 256.21 121.272 256.177Z" fill="#4D4D4D"/>
<path d="M124.199 256.601C124.841 256.601 125.366 256.087 125.366 255.449V187.534C125.366 184.564 127.812 182.148 130.82 182.148H147.262C147.904 182.148 148.428 181.634 148.428 180.997C148.428 180.363 147.908 179.845 147.262 179.845H130.82C126.528 179.845 123.036 183.293 123.036 187.53V255.446C123.036 256.087 123.557 256.601 124.199 256.601Z" fill="#4D4D4D"/>
<path d="M86.146 256.601C86.7879 256.601 87.3124 256.087 87.3124 255.449V187.534C87.3124 184.564 89.7588 182.148 92.7663 182.148H109.209C109.851 182.148 110.375 181.634 110.375 180.997C110.375 180.363 109.854 179.845 109.209 179.845H92.7663C88.4751 179.845 84.9833 183.293 84.9833 187.53V255.446C84.9833 256.087 85.5042 256.601 86.146 256.601Z" fill="#4D4D4D"/>
<path d="M47.6968 278.2H114.322C117.252 278.2 120.003 277.07 122.072 275.024C124.141 272.974 125.274 270.254 125.267 267.361C125.248 261.421 120.337 256.59 114.322 256.59H43.4092C42.7674 256.59 42.2429 257.104 42.2429 257.742C42.2429 258.376 42.7637 258.893 43.4092 258.893H114.322C119.057 258.893 122.919 262.696 122.934 267.368C122.941 269.646 122.05 271.786 120.421 273.398C118.793 275.01 116.629 275.897 114.322 275.897H47.6968C47.055 275.897 46.5305 276.411 46.5305 277.049C46.5342 277.686 47.055 278.2 47.6968 278.2Z" fill="#4D4D4D"/>
<path d="M20.9551 278.2H87.5801C90.5107 278.2 93.2615 277.07 95.3301 275.024C97.3988 272.974 98.5321 270.254 98.5248 267.361C98.5064 261.421 93.5953 256.59 87.5801 256.59H16.6674C16.0256 256.59 15.5011 257.104 15.5011 257.742C15.5011 258.376 16.0219 258.893 16.6674 258.893H87.5801C92.3152 258.893 96.1774 262.696 96.1921 267.368C96.1994 269.646 95.3081 271.786 93.6796 273.398C92.0511 275.01 89.8872 275.897 87.5801 275.897H20.9551C20.3132 275.897 19.7887 276.411 19.7887 277.049C19.7887 277.686 20.3095 278.2 20.9551 278.2Z" fill="#4D4D4D"/>
<path d="M107.995 183.035H144.079C145.227 183.035 146.158 182.116 146.158 180.982C146.158 179.848 145.227 178.929 144.079 178.929H107.995C106.847 178.929 105.915 179.848 105.915 180.982C105.915 182.116 106.843 183.035 107.995 183.035Z" fill="#4D4D4D"/>
<path d="M105.937 16.4457C105.805 -1.44866 140.187 -4.07432 139.784 5.33821L201.508 5.55189C208.65 5.64967 214.419 12.0345 214.393 19.8029L213.579 279.334C213.553 286.939 207.817 293.099 200.757 293.103L135.371 293.425C134.744 294.693 133.563 295.841 131.7 296.794C113.405 296.649 105.086 289.536 105.017 280.373C104.338 278.693 105.204 19.8137 105.937 16.4457Z" fill="#4D4D4D"/>
<path d="M132.793 296.848L213.242 296.758C220.551 296.769 226.501 290.445 226.526 282.63L227.506 15.7038C227.535 7.71097 221.564 1.15588 214.166 1.07259L133.482 0.036809C126.022 -0.0464878 119.963 6.39996 119.948 14.429L119.471 282.605C119.46 290.464 125.424 296.834 132.793 296.848Z" fill="#4D4D4D"/>
<path d="M131.168 294.954C131.656 295.019 132.155 295.055 132.65 295.055L213.08 294.841C219.363 294.845 224.527 289.3 224.553 282.474L225.507 15.8371C225.532 8.85833 220.346 3.11448 213.99 3.0348L133.328 1.87227C133.141 1.86865 132.954 1.87227 132.771 1.87951C129.789 1.99178 127.009 3.31004 124.936 5.58803C122.82 7.91309 121.654 11.0096 121.65 14.3052L121.155 282.753C121.144 288.931 125.432 294.171 131.168 294.954Z" fill="#0D0D0D"/>
<path d="M125.809 15.725L125.27 283.187L220.643 283.18L221.556 16.5L125.809 15.725Z" fill="white"/>
<path d="M192.768 58.0577L182 57.9708L147.394 15.9023L158.21 15.9893L192.768 58.0577Z" fill="#F13005"/>
<path d="M182 57.9708L171.242 57.8839L136.578 15.8118L147.394 15.9023L182 57.9708Z" fill="#F1E3E0"/>
<path d="M171.242 57.884L160.474 57.7971L125.773 15.725L136.578 15.8119L171.242 57.884Z" fill="#F13005"/>
<path d="M203.529 58.1447L192.768 58.0577L158.21 15.9893L169.019 16.0762L203.529 58.1447Z" fill="#F1E3E0"/>
<path d="M225.056 58.3186L214.294 58.2317L179.836 16.1632L190.641 16.2501L225.056 58.3186Z" fill="#F1E3E0"/>
<path d="M256.287 58.572L246.582 58.4924L212.262 16.4275L222.008 16.5035L256.287 58.572Z" fill="#F13005"/>
<path d="M246.582 58.4924L235.82 58.4055L201.457 16.337L212.262 16.4276L246.582 58.4924Z" fill="#F1E3E0"/>
<path d="M214.294 58.2316L203.529 58.1446L169.019 16.0762L179.836 16.1631L214.294 58.2316Z" fill="#F13005"/>
<path d="M235.82 58.4054L225.056 58.3185L190.641 16.25L201.457 16.3369L235.82 58.4054Z" fill="#F13005"/>
<path d="M171.242 57.884L171.246 64.287C171.249 71.0739 160.495 70.987 160.484 64.2001L160.473 57.7971L171.242 57.884Z" fill="#D62B04"/>
<path d="M182 57.9708L181.996 64.3738C181.992 71.1607 171.246 71.0738 171.242 64.2869L171.238 57.8839L182 57.9708Z" fill="#F1C5BC"/>
<path d="M192.768 58.0578L192.757 64.4644C192.746 71.2513 181.992 71.1643 181.996 64.3775L182 57.9745L192.768 58.0578Z" fill="#D62B04"/>
<path d="M203.529 58.1448L203.511 64.5478C203.493 71.3346 192.746 71.2477 192.757 64.4608L192.768 58.0579L203.529 58.1448Z" fill="#F1C5BC"/>
<path d="M214.294 58.2316L214.269 64.6346C214.243 71.4214 203.489 71.3345 203.507 64.5476L203.526 58.1447L214.294 58.2316Z" fill="#D62B04"/>
<path d="M225.055 58.3185L225.022 64.7215C224.989 71.5083 214.243 71.4214 214.272 64.6346L214.298 58.2316L225.055 58.3185Z" fill="#F1C5BC"/>
<path d="M235.82 58.4054L235.78 64.8084C235.74 71.5953 224.986 71.5083 225.019 64.7215L225.052 58.3185L235.82 58.4054Z" fill="#D62B04"/>
<path d="M246.582 58.4923L246.534 64.8953C246.483 71.6822 235.74 71.5953 235.784 64.8084L235.824 58.4054L246.582 58.4923Z" fill="#F1C5BC"/>
<path d="M256.287 58.5721L256.232 64.9751C256.177 71.762 246.479 71.6823 246.53 64.8954L246.578 58.4924L256.287 58.5721Z" fill="#D62B04"/>
<path d="M160.473 57.7971L161.317 57.913L125.725 57.6015L125.773 15.725L160.473 57.7971Z" fill="#F1E3E0"/>
<path d="M112.506 105.961C114.021 105.993 115.272 104.813 115.286 103.331L115.873 35.5714C115.888 34.0684 114.648 32.8117 113.119 32.7791C111.593 32.7429 110.331 33.9453 110.32 35.4482L109.774 103.212C109.759 104.69 110.992 105.928 112.506 105.961Z" fill="#0D0D0D"/>
<path d="M210.968 85.4264H196.087V166.518H210.968V85.4264Z" fill="#0776ED" fill-opacity="0.5"/>
<path d="M203.529 159.292C202.664 159.292 201.963 158.601 201.963 157.746V94.2014C201.963 93.3468 202.664 92.655 203.529 92.655C204.395 92.655 205.095 93.3468 205.095 94.2014V157.746C205.095 158.601 204.395 159.292 203.529 159.292Z" fill="#0D0D0D"/>
<path d="M276.72 171.428C276.72 171.428 282.078 171.106 284.833 175.803C287.591 180.5 284.129 184.868 284.129 184.868C284.129 184.868 294.035 185.078 295.191 194.252C296.346 203.425 287.87 204.78 287.87 204.78C287.87 204.78 291.317 211.791 283.113 217.267C274.911 222.739 266.919 212.675 266.919 212.675C266.919 212.675 260.083 215.293 254.599 208.593C249.116 201.893 255.142 195.132 255.142 195.132C255.142 195.132 251.119 192.242 251.999 185.216C252.879 178.186 258.63 178.034 258.63 178.034C258.63 178.034 255.916 173.855 258.924 170.791C261.931 167.727 266.718 170.411 266.718 170.411C266.718 170.411 268.144 165.09 271.959 165.822C275.773 166.546 276.72 171.428 276.72 171.428Z" fill="#0D0D0D"/>
<path d="M258.564 185.038L247.458 173.895L247.469 154.61L243.802 154.132C243.802 154.132 240.798 171.671 240.809 175.398C240.816 178.708 252.065 193.089 252.065 193.089L258.564 185.038Z" fill="#FFA88F"/>
<path d="M271.515 185.911C268.009 182.988 257.878 184.35 257.878 184.35C257.878 184.35 251.269 189.71 250.723 193.672C250.334 196.515 252.006 212.349 252.006 212.349H268.251L274.394 195.711C274.394 195.711 275.025 188.834 271.515 185.911Z" fill="#029E73"/>
<path d="M272.927 231C274.255 238.725 275.799 251.299 276.423 260.06C280.659 278.425 279.658 281.988 281.29 293.121C279.511 294.487 276.888 293.559 276.888 293.559C273.892 286.001 269.237 273.369 268.056 262.58C265.262 253.617 262.313 244.161 259.257 234.364L259.034 233.803C256.452 225.26 270.892 220.157 272.927 231Z" fill="#FFA88F"/>
<path d="M252.025 212.349C252.025 212.349 249.996 217.712 248.727 226.031C247.458 234.35 243.31 292.538 243.31 292.538L247.92 292.563C250.385 282.597 255.282 274.662 254.676 261.827L266.377 226.535L260.644 212.345H252.025V212.349Z" fill="#FFA88F"/>
<path d="M270.235 186.027L281.62 175.546L277.072 155.323L280.996 154.132C280.996 154.132 290.595 173.351 290.584 177.078C290.576 180.388 274.394 195.809 274.394 195.809C271.845 197 268.042 191.441 270.235 186.027Z" fill="#FFA88F"/>
<path d="M258.564 169.44C255.876 174.297 255.535 179.023 259.72 181.312C263.901 183.6 269.472 181.518 272.161 176.661C274.849 171.805 273.639 166.01 269.457 163.718C265.276 161.429 261.253 164.58 258.564 169.44Z" fill="#FFA88F"/>
<path d="M261.168 179.407H267.271L267.514 185.897C267.514 187.24 264.363 189.134 261.807 188.986C259.819 188.87 258.495 187.497 259.136 186.081L261.168 179.407Z" fill="#FFA88F"/>
<path d="M245.184 253.193C247.128 227.943 252.025 212.349 252.025 212.349H268.254C271.126 214.572 273.738 218.448 275.399 222.587C276.533 225.868 281.084 240.199 282.838 253.193C270.004 257.782 246.835 256.098 245.184 253.193Z" fill="#029E73"/>
<path d="M269.388 209.94L268.596 212.787H251.816L251.673 209.94H269.388Z" fill="#0D0D0D"/>
<path d="M235.01 297.141C235.01 297.083 237.742 297.083 240.669 297.094C244.032 297.105 248.225 297.141 248.225 297.141C248.309 295.859 248.357 294.53 247.928 292.567L242.657 292.542C242.657 292.542 241.194 292.784 238.634 293.556C238.465 293.606 238.285 293.643 238.098 293.686C234.001 294.621 235.01 297.261 235.01 297.141Z" fill="#994803"/>
<path d="M235.01 297.141C235.01 297.083 237.742 297.083 240.669 297.094C240.761 296.833 240.809 296.551 240.809 296.265C240.809 295.012 239.899 293.947 238.634 293.556C238.465 293.603 238.285 293.643 238.098 293.686C234.001 294.621 235.01 297.261 235.01 297.141Z" fill="#994803"/>
<path d="M248.401 296.326H234.738V297.145H248.401V296.326Z" fill="#994803"/>
<path d="M276.056 297.181C276.133 297.185 277.475 297.167 279.133 297.148C281.836 297.123 285.387 297.101 285.72 297.181C286.663 294.936 284.708 293.78 282.911 293.147C282.144 292.879 281.403 292.705 280.93 292.582L276.353 292.607C275.924 294.566 275.972 295.895 276.056 297.181Z" fill="#994803"/>
<path d="M285.992 296.362H275.876V297.181H285.992V296.362Z" fill="#994803"/>
<path d="M279.133 297.148C281.836 297.123 285.387 297.101 285.72 297.181C286.663 294.936 284.708 293.78 282.911 293.147C281.869 293.038 280.652 293.208 279.694 294.193C278.686 295.236 278.77 296.312 279.133 297.148Z" fill="#994803"/>
<path d="M264.909 165.808C265.027 165.641 263.545 171.903 272.359 175.807C277.787 172.142 276.298 160.593 266.501 162.921C265.32 160.846 259.694 159.734 257.941 164.808C253.367 165.402 253.47 169.708 256.477 169.469C256.477 169.473 261.891 170.056 264.909 165.808Z" fill="#0D0D0D"/>
<path d="M270.235 175.807C270.235 176.723 270.987 177.465 271.915 177.465C272.843 177.465 273.595 176.723 273.595 175.807C273.595 174.891 272.843 174.148 271.915 174.148C270.987 174.148 270.235 174.891 270.235 175.807Z" fill="#FFA88F"/>
<path d="M282.159 98.2974H201.963V153.646H282.163C284.961 153.646 287.232 151.404 287.232 148.641V103.299C287.228 100.539 284.958 98.2974 282.159 98.2974Z" fill="#F13005"/>
<path d="M271.933 112.28H265.287V109.651C265.287 108.775 266.006 108.065 266.894 108.065H276.195V114.41C276.195 114.79 276.401 115.098 276.786 115.098C277.171 115.098 277.321 114.79 277.321 114.41V108.068H278.931C279.819 108.068 280.538 108.778 280.538 109.655V117.34H271.816C271.544 117.34 271.299 117.532 271.269 117.8C271.24 118.107 271.482 118.365 271.787 118.365H280.538V121.537C280.538 122.414 279.819 123.123 278.931 123.123H266.897C266.01 123.123 265.291 122.414 265.291 121.537V113.327H271.966C272.278 113.327 272.524 113.063 272.491 112.751C272.461 112.48 272.208 112.28 271.933 112.28Z" fill="#FFCA05"/>
<path d="M203.522 147.42H221.96V138.236H203.522V147.42Z" fill="#ECEAE9"/>
<path d="M280.534 128.722H263.329V133.007H280.534V128.722Z" fill="#ECEAE9"/>
<path d="M260.908 128.722H243.383V133.007H260.908V128.722Z" fill="#ECEAE9"/>
<path d="M221.527 128.722H203.625V133.007H221.527V128.722Z" fill="#ECEAE9"/>
<path d="M240.64 128.722H224.08V133.007H240.64V128.722Z" fill="#ECEAE9"/>
<path d="M227.372 143.769H280.43V138.235H227.372V143.769Z" fill="#FFCA05"/>
<path d="M203.522 109.956H226.35V103.502H203.522V109.956Z" fill="#ECEAE9"/>
<path d="M247.205 154.986C247.205 154.986 248.643 154.642 249.039 152.212C249.435 149.778 249.494 150.343 249.494 150.343C249.494 150.343 248.14 149.652 247.422 152.462C245.294 152.321 243.948 153.65 243.948 153.65C243.948 153.65 243.416 153.893 243.702 154.678C243.992 155.464 246.945 155.366 247.205 154.986Z" fill="#FFA88F"/>
<path d="M277.072 155.323C277.072 155.323 274.952 154.624 274.112 150.267C275.473 149.311 276.012 151.839 276.012 151.839C276.012 151.839 281.209 151.408 280.996 154.131C280.78 156.855 277.072 155.323 277.072 155.323Z" fill="#FFA88F"/>
<path d="M202.983 98.2974H201.963V153.646H202.983V98.2974Z" fill="#0D0D0D"/>
<path d="M183.98 85.4264H138.654V110.22H183.98V85.4264Z" fill="#0776ED"/>
<path d="M183.98 113.559H138.654V138.352H183.98V113.559Z" fill="#0776ED"/>
<path d="M183.98 141.641H138.654V166.434H183.98V141.641Z" fill="#0776ED"/>
<path d="M208.87 186.306H138.111V256.166H208.87V186.306Z" fill="#0776ED"/>
<path d="M184.274 229.414H159.164C158.665 229.414 158.221 229.095 158.071 228.624L153.263 213.83C153.149 213.486 153.211 213.106 153.428 212.816C153.644 212.523 153.989 212.349 154.356 212.349H189.086C189.453 212.349 189.797 212.523 190.014 212.816C190.23 213.109 190.292 213.486 190.179 213.83L185.37 228.624C185.213 229.095 184.772 229.414 184.274 229.414ZM160 227.143H183.434L187.505 214.619H155.925L160 227.143Z" fill="white"/>
<path d="M182.209 235.679H160.793C160.158 235.679 159.645 235.172 159.645 234.546C159.645 233.919 160.158 233.412 160.793 233.412H181.369C182.77 233.376 183.401 232.42 183.503 231.442C183.595 230.565 183.258 229.674 182.66 229.417L189.889 207.061C190.039 206.59 190.483 206.272 190.986 206.272H198.464C199.099 206.272 199.612 206.779 199.612 207.405C199.612 208.032 199.099 208.539 198.464 208.539H191.826L185.198 229.291C186.958 232.148 184.563 235.679 182.209 235.679Z" fill="white"/>
<path d="M165.176 242.093C166.636 242.093 167.82 240.924 167.82 239.482C167.82 238.04 166.636 236.871 165.176 236.871C163.715 236.871 162.531 238.04 162.531 239.482C162.531 240.924 163.715 242.093 165.176 242.093Z" fill="white"/>
<path d="M178.482 242.093C179.943 242.093 181.127 240.924 181.127 239.482C181.127 238.04 179.943 236.871 178.482 236.871C177.022 236.871 175.838 238.04 175.838 239.482C175.838 240.924 177.022 242.093 178.482 242.093Z" fill="white"/>
<path d="M172.339 229.414C171.704 229.414 171.191 228.907 171.191 228.28V213.486C171.191 212.859 171.704 212.352 172.339 212.352C172.973 212.352 173.487 212.859 173.487 213.486V228.28C173.49 228.903 172.977 229.414 172.339 229.414Z" fill="white"/>
<path d="M165.931 229.414C165.407 229.414 164.933 229.055 164.812 228.53L161.412 213.736C161.273 213.124 161.658 212.515 162.278 212.378C162.898 212.24 163.514 212.62 163.653 213.232L167.053 228.027C167.193 228.639 166.808 229.247 166.188 229.385C166.1 229.403 166.015 229.414 165.931 229.414Z" fill="white"/>
<path d="M178.486 229.414C178.431 229.414 178.376 229.41 178.317 229.403C177.69 229.312 177.253 228.736 177.345 228.117L179.524 213.323C179.616 212.704 180.199 212.273 180.826 212.363C181.453 212.454 181.89 213.03 181.798 213.649L179.619 228.443C179.539 229.004 179.047 229.414 178.486 229.414Z" fill="white"/>
<path d="M186.676 222.105H156.784C156.149 222.105 155.636 221.598 155.636 220.972C155.636 220.345 156.149 219.838 156.784 219.838H186.676C187.311 219.838 187.824 220.345 187.824 220.972C187.828 221.598 187.311 222.105 186.676 222.105Z" fill="white"/>
<path d="M159.777 213.361C159.802 210.269 157.283 207.742 154.151 207.718C151.02 207.693 148.461 210.18 148.436 213.272C148.411 216.365 150.93 218.891 154.062 218.916C157.193 218.94 159.752 216.453 159.777 213.361Z" fill="#F13005"/>
<path d="M161.853 94.017C160.661 92.409 158.739 91.3588 156.567 91.3588C152.947 91.3588 150.017 94.256 150.017 97.8269C150.017 101.401 152.951 104.295 156.567 104.295C158.742 104.295 160.664 103.245 161.853 101.637C161.06 100.568 160.587 99.2538 160.587 97.8269C160.587 96.4 161.06 95.0854 161.853 94.017Z" fill="white"/>
<path d="M167.138 91.3547C164.963 91.3547 163.041 92.405 161.853 94.013C162.645 95.0814 163.118 96.396 163.118 97.8229C163.118 99.2498 162.645 100.564 161.853 101.633C163.045 103.241 164.966 104.291 167.138 104.291C170.758 104.291 173.692 101.394 173.692 97.8229C173.692 94.252 170.758 91.3547 167.138 91.3547Z" fill="#073B73"/>
<path d="M161.852 94.0166C161.06 95.085 160.587 96.3996 160.587 97.8265C160.587 99.2534 161.06 100.568 161.852 101.636C162.645 100.568 163.118 99.2534 163.118 97.8265C163.118 96.3996 162.645 95.085 161.852 94.0166Z" fill="#0776ED"/>
<path d="M173.626 118.817H151.542V130.863H173.626V118.817Z" fill="#073B73"/>
<path d="M172.687 127.437C172.694 127.437 172.698 127.437 172.705 127.437V122.207C171.099 122.196 170.296 120.961 170.296 119.726H154.909C154.909 120.969 154.099 122.207 152.481 122.207C152.474 122.207 152.467 122.207 152.459 122.207V127.477C152.467 127.477 152.474 127.477 152.481 127.477C154.103 127.477 154.909 128.719 154.909 129.957H170.255C170.244 128.704 171.051 127.437 172.687 127.437Z" fill="white"/>
<path d="M162.7 127.582C164.233 127.582 165.476 126.354 165.476 124.84C165.476 123.326 164.233 122.099 162.7 122.099C161.166 122.099 159.923 123.326 159.923 124.84C159.923 126.354 161.166 127.582 162.7 127.582Z" fill="#03ADB0"/>
<path d="M170.74 122.138H148.656V134.184H170.74V122.138Z" fill="#073B73"/>
<path d="M169.804 130.758C169.812 130.758 169.815 130.758 169.823 130.758V125.528C168.216 125.517 167.413 124.282 167.413 123.047H152.027C152.027 124.289 151.216 125.528 149.598 125.528C149.591 125.528 149.584 125.528 149.576 125.528V130.797C149.584 130.797 149.591 130.797 149.598 130.797C151.22 130.797 152.027 132.04 152.027 133.278H167.372C167.361 132.025 168.168 130.758 169.804 130.758Z" fill="white"/>
<path d="M159.867 130.915C161.401 130.889 162.622 129.64 162.596 128.126C162.569 126.612 161.305 125.406 159.772 125.432C158.239 125.458 157.017 126.707 157.043 128.221C157.07 129.734 158.334 130.941 159.867 130.915Z" fill="#04D6D9"/>
<path d="M152.459 148.645V160.267L167.633 158.191V146.36L152.459 148.645Z" fill="#073B73"/>
<path d="M154.374 148.645L154.411 160.002L168.924 160.774L168.887 149.21L154.374 148.645Z" fill="white"/>
<path d="M152.459 148.645V160.266L167.633 163.794V151.962L152.459 148.645Z" fill="#073B73"/>
<path d="M62.8814 102.057C59.0082 106.305 52.795 109.673 46.0757 111.252C46.083 111.697 46.116 114.16 46.2737 125.517C46.4828 140.666 61.3189 147.808 63.5269 148.786C65.7056 147.75 80.34 140.21 80.1309 125.061C79.9732 113.704 79.9402 111.241 79.9329 110.795C73.1732 109.397 66.8683 106.2 62.8814 102.057Z" fill="#318F66"/>
<path d="M63.4682 144.516C61.9865 143.788 59.0632 142.162 56.2611 139.507C51.9991 135.466 49.7984 130.758 49.7288 125.514L49.571 114.048C54.8086 112.613 59.5511 110.067 62.9511 106.877C66.4355 109.977 71.2439 112.393 76.5218 113.685L76.6795 125.151C76.7529 130.399 74.6843 135.165 70.536 139.319C67.8035 142.046 64.928 143.748 63.4682 144.516Z" fill="#40B883"/>
<path d="M73.6133 117.93C69.5714 118.618 64.1175 122.37 60.7138 126.821C60.1856 124.76 57.9593 122.91 56.8039 122.515L53.3892 126.028C55.5789 126.955 57.9996 129.649 58.3664 132.445L61.8471 132.916C63.2592 130.033 66.916 123.138 74.3725 119.328C74.2185 118.77 73.672 118.006 73.6133 117.93Z" fill="white"/>
<path d="M331.259 297.018H6.96252V298.018H331.259V297.018Z" fill="#0776ED"/>
</g>
<defs>
<clipPath id="clip0_85_820">
<rect width="343" height="300" fill="white"/>
</clipPath>
</defs>
</svg>
