<svg width="13" height="27" viewBox="0 0 13 27" fill="none" xmlns="http://www.w3.org/2000/svg">
<g filter="url(#filter0_d_253_1324)">
<path d="M4.612 4.74C4.612 3.284 4.67267 1.724 4.794 0.0599985H8.486C8.59 1.60267 8.642 3.05867 8.642 4.428C8.642 7.66933 8.356 10.4427 7.784 12.748H5.444C4.88933 10.4947 4.612 7.82533 4.612 4.74ZM6.614 18.26C5.24467 18.26 4.56 17.6187 4.56 16.336C4.56 15.0533 5.24467 14.412 6.614 14.412C8.00067 14.412 8.694 15.0533 8.694 16.336C8.694 17.6187 8.00067 18.26 6.614 18.26Z" fill="white"/>
</g>
<defs>
<filter id="filter0_d_253_1324" x="0.560059" y="0.0599976" width="12.1338" height="26.2" filterUnits="userSpaceOnUse" color-interpolation-filters="sRGB">
<feFlood flood-opacity="0" result="BackgroundImageFix"/>
<feColorMatrix in="SourceAlpha" type="matrix" values="0 0 0 0 0 0 0 0 0 0 0 0 0 0 0 0 0 0 127 0" result="hardAlpha"/>
<feOffset dy="4"/>
<feGaussianBlur stdDeviation="2"/>
<feComposite in2="hardAlpha" operator="out"/>
<feColorMatrix type="matrix" values="0 0 0 0 0 0 0 0 0 0 0 0 0 0 0 0 0 0 0.25 0"/>
<feBlend mode="normal" in2="BackgroundImageFix" result="effect1_dropShadow_253_1324"/>
<feBlend mode="normal" in="SourceGraphic" in2="effect1_dropShadow_253_1324" result="shape"/>
</filter>
</defs>
</svg>
