<svg width="62" height="55" viewBox="0 0 62 55" fill="none" xmlns="http://www.w3.org/2000/svg">
<path d="M31.001 6.28967C32.7704 6.28967 34.5303 7.40294 35.8708 9.62948L54.517 40.6187C57.2011 45.0686 55.1289 48.7103 49.9249 48.7103H12.0772C6.87319 48.7103 4.80103 45.0655 7.48506 40.6187L26.1313 9.62948C27.4718 7.40294 29.2317 6.28967 31.001 6.28967ZM31.001 0C26.9135 0 23.1729 2.32718 20.7223 6.38716L2.076 37.3826C-0.403017 41.4992 -0.674258 45.8894 1.33482 49.4274C3.3439 52.9653 7.26113 55 12.0772 55H49.9249C54.741 55 58.6614 52.9684 60.6673 49.4305C62.6732 45.8926 62.4051 41.5024 59.9261 37.3858L41.2798 6.39659C38.8292 2.32718 35.0886 0 31.001 0Z" fill="#F13005"/>
<path d="M35.7331 41.6282C35.7331 41.6282 33.4906 42.7634 32.3425 42.2005C31.2008 41.6219 30.9737 40.4992 31.6203 38.5777L32.9008 34.7378C34.1718 30.898 32.5192 28.2091 29.4882 28.0362C25.5205 27.816 23.1172 30.6338 23.1172 30.6338C23.1172 30.6338 25.3565 29.486 26.5077 30.0615C27.6494 30.6401 27.8702 31.7628 27.23 33.6843L25.9495 37.5241C24.6721 41.364 26.3248 44.0465 29.362 44.2258C33.3297 44.4491 35.7331 41.6282 35.7331 41.6282Z" fill="#F13005"/>
<path d="M31.0027 24.4983C33.2689 24.4983 35.106 22.6665 35.106 20.4069C35.106 18.1472 33.2689 16.3154 31.0027 16.3154C28.7365 16.3154 26.8994 18.1472 26.8994 20.4069C26.8994 22.6665 28.7365 24.4983 31.0027 24.4983Z" fill="#F13005"/>
</svg>
