<svg width="36" height="27" viewBox="0 0 36 27" fill="none" xmlns="http://www.w3.org/2000/svg">
<path d="M13.0336 21.9289C12.8391 23.3362 12.1585 24.6239 11.1169 25.5555C10.0753 26.4871 8.74263 27 7.36364 27C5.98464 27 4.65195 26.4871 3.61034 25.5555C2.56874 24.6239 1.88817 23.3362 1.69364 21.9289H0V1.68684C0 1.23946 0.172402 0.810408 0.47928 0.494064C0.786157 0.17772 1.20237 0 1.63636 0H24.5455C24.9794 0 25.3957 0.17772 25.7025 0.494064C26.0094 0.810408 26.1818 1.23946 26.1818 1.68684V5.06052H31.0909L36 11.9023V21.9289H32.67C32.4755 23.3362 31.7949 24.6239 30.7533 25.5555C29.7117 26.4871 28.379 27 27 27C25.621 27 24.2883 26.4871 23.2467 25.5555C22.2051 24.6239 21.5245 23.3362 21.33 21.9289H13.0336ZM22.9091 3.37368H3.27273V16.9527C3.91837 16.2733 4.71371 15.7647 5.59105 15.4702C6.46839 15.1757 7.40175 15.1041 8.31171 15.2615C9.22166 15.4189 10.0813 15.8005 10.8174 16.374C11.5535 16.9475 12.1442 17.6958 12.5395 18.5552H21.8242C22.0991 17.9598 22.4673 17.4183 22.9091 16.9527V3.37368ZM26.1818 13.4947H32.7273V13.014L29.4415 8.4342H26.1818V13.4947ZM27 23.6158C27.6512 23.6158 28.2757 23.3491 28.7362 22.8744C29.1967 22.3997 29.4554 21.7559 29.4554 21.0847C29.4554 20.4134 29.1967 19.7696 28.7362 19.2949C28.2757 18.8202 27.6512 18.5535 27 18.5535C26.3488 18.5535 25.7243 18.8202 25.2638 19.2949C24.8033 19.7696 24.5446 20.4134 24.5446 21.0847C24.5446 21.7559 24.8033 22.3997 25.2638 22.8744C25.7243 23.3491 26.3488 23.6158 27 23.6158ZM9.81818 21.0855C9.81818 20.7532 9.75469 20.4242 9.63134 20.1172C9.50799 19.8102 9.32719 19.5313 9.09926 19.2963C8.87134 19.0614 8.60075 18.875 8.30295 18.7478C8.00515 18.6207 7.68597 18.5552 7.36364 18.5552C7.0413 18.5552 6.72212 18.6207 6.42432 18.7478C6.12652 18.875 5.85594 19.0614 5.62801 19.2963C5.40008 19.5313 5.21928 19.8102 5.09593 20.1172C4.97258 20.4242 4.90909 20.7532 4.90909 21.0855C4.90909 21.7566 5.16769 22.4001 5.62801 22.8747C6.08833 23.3492 6.71265 23.6158 7.36364 23.6158C8.01462 23.6158 8.63895 23.3492 9.09926 22.8747C9.55958 22.4001 9.81818 21.7566 9.81818 21.0855Z" fill="#F13005"/>
</svg>
