<svg width="25" height="28" viewBox="0 0 25 28" fill="none" xmlns="http://www.w3.org/2000/svg">
<path d="M4.39401 18.6685H6.24852C6.65659 18.6286 7.16771 18.8854 7.30673 19.3381C7.46299 19.8464 7.78226 19.8934 8.24354 19.8745C8.94277 19.846 9.64463 19.8842 10.3442 19.8639C11.9465 19.8176 13.0115 21.351 12.3235 22.7362C12.065 23.1569 11.6752 23.3556 11.1664 23.3553C10.6418 23.3553 10.1172 23.3553 9.59254 23.3553C9.49546 23.3507 9.39815 23.3544 9.30176 23.3663C9.09116 23.4019 8.97088 23.5216 8.978 23.7282C8.98512 23.9348 9.12788 24.0171 9.32611 24.0263C9.60753 24.0395 9.8882 24.0306 10.1707 24.0317C10.4915 24.0317 10.8126 24.0178 11.1323 24.0345C12.1317 24.0862 12.9879 23.4835 13.1794 22.4388C13.1859 22.4025 13.1954 22.3668 13.2079 22.3319C13.2686 22.2016 13.3997 22.1538 13.5208 22.0979C15.3039 21.277 17.0841 20.4498 18.8613 19.6163C18.9396 19.5807 19.0209 19.549 19.1023 19.518C19.5459 19.3502 19.5459 19.3502 19.5463 18.8811C19.5463 17.6252 19.5463 16.3692 19.5463 15.1133C19.5463 14.9797 19.5088 14.8326 19.6336 14.7215C19.7172 14.8191 19.6823 14.9352 19.6827 15.0421C19.6849 16.4102 19.6913 17.7787 19.6771 19.1468C19.6748 19.3709 19.752 19.4493 19.966 19.4913C20.521 19.6017 20.8721 19.928 21.022 20.4455C20.6098 21.0176 20.0304 21.4329 19.5017 21.8931C18.7635 22.5342 18.0242 23.1772 17.274 23.8069C16.3413 24.5905 15.4708 25.4397 14.4785 26.1553C13.6302 26.7669 12.6585 27.0814 11.5962 27.1883C10.4308 27.3069 9.35721 27.0458 8.32073 26.5852C7.11487 26.047 5.90377 25.5195 4.69267 24.9923C4.57613 24.9414 4.46371 24.8883 4.40076 24.7733C4.33368 24.623 4.34605 24.4645 4.34605 24.3081C4.3443 22.5271 4.3443 20.7452 4.34605 18.9623C4.34455 18.863 4.32656 18.7589 4.39401 18.6685Z" fill="#F5CBAE"/>
<path d="M20.668 9.05944C20.0996 9.32053 19.6031 9.69454 19.0519 9.98555C17.8186 10.6388 16.6368 10.6174 15.4661 9.85696C15.2788 9.73586 15.1038 9.57201 14.8523 9.56524C14.7306 9.55669 14.6331 9.494 14.5349 9.43416C13.564 8.85463 12.5703 8.31108 11.596 7.7369C11.1857 7.49504 10.8436 7.1905 10.7368 6.73279C10.4595 5.54489 11.5237 4.34843 12.7603 4.65013C12.8071 4.66153 12.8566 4.66295 12.9034 4.67435C13.6529 4.97248 14.2899 5.45512 14.9887 5.83589C15.1491 5.92316 15.3001 6.0261 15.4643 6.1066C15.6966 6.22094 15.9072 6.18211 16.005 6.01791C16.1028 5.8537 16.0477 5.64177 15.8454 5.51283C15.2083 5.10677 14.5428 4.73918 13.8889 4.35591C13.5431 4.15324 13.217 3.91958 12.8161 3.80381C12.39 3.68057 12.0127 3.81379 11.6275 3.94415C11.2999 3.85777 11.0051 3.68412 10.778 3.4437C10.754 3.33862 10.8136 3.26133 10.8859 3.20042C11.5372 2.65153 12.085 1.98366 12.824 1.53166C14.348 0.599498 15.9342 0.518642 17.5455 1.3272C18.5572 1.83584 19.548 2.38688 20.5462 2.92259C20.6212 2.9632 20.7055 2.99383 20.7583 3.06507C20.8014 3.16979 20.7426 3.25706 20.7044 3.34753C20.6261 3.53417 20.5856 3.72509 20.6351 3.92634C20.6752 4.90302 20.6384 5.87971 20.6549 6.85603C20.6665 7.54598 20.6096 8.23771 20.6958 8.92658C20.7026 8.97258 20.6928 9.01942 20.668 9.05944Z" fill="#F5CBAE"/>
<path d="M19.6359 14.7218C19.6336 16.1904 19.6269 17.659 19.634 19.1272C19.634 19.3541 19.5965 19.4881 19.3237 19.5191C19.1667 19.5379 19.0168 19.6295 18.8692 19.6971C17.4212 20.3732 15.9741 21.0501 14.5276 21.7278C14.1016 21.9258 13.6572 22.0893 13.2555 22.3333C13.1715 22.4192 13.0793 22.469 12.9594 22.3925C12.8646 22.2831 12.8747 22.1506 12.8747 22.0227C12.8725 20.3558 12.8725 18.6885 12.8747 17.0211C12.8747 16.9199 12.8747 16.818 12.9148 16.7219C13.0201 16.5705 13.1363 16.6617 13.2401 16.7183C13.4844 16.8515 13.704 17.02 13.9359 17.1714C14.093 17.274 14.2563 17.3513 14.4482 17.2483C14.6303 17.1511 14.6374 16.9844 14.6374 16.8148C14.6374 15.939 14.6352 15.0634 14.6397 14.1879C14.6397 13.9835 14.5928 13.8057 14.4362 13.6607C14.4261 13.6483 14.4196 13.6335 14.4175 13.6179C14.4154 13.6024 14.4177 13.5865 14.4242 13.572C15.7357 13.5696 17.0503 13.5574 18.3629 13.5692C19.0228 13.5735 19.5643 14.0867 19.6359 14.7218Z" fill="#FEB955"/>
<path d="M12.9702 16.6642C12.9702 18.495 12.9692 20.3258 12.9672 22.1567C12.9672 22.2368 12.9425 22.3258 13.0245 22.3889C12.893 22.6126 12.5543 22.7625 12.2635 22.7251C12.4415 22.2767 12.5134 21.8208 12.3856 21.3463C12.1735 20.5602 11.3626 19.9497 10.5098 19.9465C9.57771 19.9434 8.64552 19.9434 7.71321 19.9465C7.54721 19.9465 7.43704 19.9173 7.3962 19.7424C7.2583 19.1511 6.86259 18.802 6.24805 18.6667C6.24805 17.402 6.24805 16.137 6.24805 14.8718C6.24805 14.1541 6.79777 13.5767 7.54309 13.5674C8.86361 13.5514 10.1849 13.5674 11.5058 13.5695C11.206 13.8837 11.2277 14.268 11.233 14.6545C11.2427 15.3181 11.2356 15.9817 11.236 16.6456C11.236 16.7283 11.2326 16.8116 11.2397 16.895C11.2716 17.2608 11.5365 17.3979 11.8655 17.2116C12.1237 17.0656 12.3661 16.8957 12.6187 16.7407C12.7158 16.6813 12.8061 16.6068 12.9294 16.5983C12.9706 16.6065 12.9837 16.6282 12.9702 16.6642Z" fill="#FECB66"/>
<path d="M4.39356 18.6685C4.45876 18.8654 4.45876 19.0681 4.45876 19.2701C4.45876 21.0054 4.45876 22.7409 4.45876 24.4765C4.45876 24.5952 4.43515 24.7173 4.49623 24.8306C4.62963 25.0315 4.59328 25.2509 4.5678 25.4671C4.55993 25.5337 4.54195 25.6181 4.4314 25.6075C4.32536 25.4906 4.34334 25.3464 4.34747 25.211C4.35421 24.9973 4.25079 24.9172 4.03232 24.9182C3.40166 24.9207 2.77101 24.9182 2.14072 24.9182C1.56815 24.9182 0.995945 24.9182 0.423369 24.9182C0.280599 24.9182 0.128837 24.9389 0.00892525 24.832C0.00617728 22.6533 0.00417876 20.4744 0.00292969 18.2952C0.00292969 17.9899 0.169307 17.8321 0.487821 17.8289C1.39128 17.8243 2.29511 17.8154 3.19819 17.8353C3.78426 17.8481 4.16385 18.1716 4.39356 18.6685Z" fill="#425B72"/>
<path d="M10.6364 11.2201C9.65763 10.6376 8.67898 10.0551 7.70045 9.47258C6.39342 8.69038 5.08738 7.90747 3.78235 7.12384C3.72577 7.09 3.67518 7.04691 3.62159 7.00808C3.61372 6.89517 3.69654 6.8225 3.75574 6.74058C4.42462 5.83229 4.25825 4.66504 3.36903 3.96227C3.17455 3.80804 2.91599 3.75105 2.74512 3.5669L3.20827 2.83777C4.51681 3.64918 5.85457 4.4157 7.17546 5.20824C7.27289 5.26665 7.38418 5.30939 7.44639 5.41091C7.48049 5.53059 7.4003 5.62463 7.36507 5.7265C6.97761 6.86168 7.58991 7.8088 8.71707 7.97051C9.23307 8.04389 9.69435 7.89215 10.0874 7.56125C10.2115 7.45688 10.2965 7.31797 10.4296 7.22286C10.5378 7.18724 10.6147 7.25385 10.6949 7.30123C11.9772 8.06099 13.2613 8.8179 14.5361 9.5887C14.6141 9.63572 14.7531 9.65032 14.7235 9.79351C14.6193 10.0147 14.4668 10.2074 14.3214 10.4047C14.2625 10.3992 14.2082 10.3723 14.1697 10.3296C13.3513 9.51034 11.3866 9.7269 10.8039 11.0391C10.7683 11.1153 10.7312 11.1916 10.6364 11.2201Z" fill="#9CCB6B"/>
<path d="M20.6678 9.05943C20.6034 8.89522 20.5445 8.73066 20.5449 8.5515C20.5477 6.98425 20.5497 5.41581 20.5509 3.84618C20.6394 3.75429 20.7596 3.75678 20.8747 3.75642C22.181 3.75037 23.4872 3.75642 24.7939 3.7525C24.8618 3.74764 24.9298 3.75993 24.991 3.78812C24.9938 5.61658 24.9958 7.44504 24.997 9.2735C24.997 9.59158 24.8329 9.75935 24.4979 9.76291C23.6233 9.77181 22.7487 9.77395 21.8748 9.76291C21.336 9.75436 20.935 9.50324 20.6678 9.05943Z" fill="#425B72"/>
<path d="M14.7221 9.7928C13.8255 9.25305 12.9284 8.71354 12.0309 8.17426C11.508 7.86034 10.9846 7.54724 10.4608 7.23498C10.4502 7.22483 10.4422 7.21253 10.4374 7.19901C10.4326 7.1855 10.4311 7.17112 10.433 7.15697C10.5576 6.88704 10.6206 6.59508 10.6178 6.30033C10.605 5.62 10.2431 5.16051 9.61989 4.89906C8.97537 4.62836 8.35145 4.69105 7.80735 5.15802C7.7073 5.24421 7.62561 5.35072 7.50158 5.41127C7.48772 5.41691 7.47246 5.41866 7.45759 5.41633C7.44272 5.41399 7.42886 5.40766 7.41764 5.39809C6.9305 5.18936 6.50294 4.88197 6.04916 4.61874C5.15469 4.10048 4.27147 3.56405 3.383 3.0376C3.29794 2.98737 3.20951 2.94962 3.20801 2.83777C3.3474 2.61741 3.48668 2.39704 3.62582 2.17668C3.71426 2.15246 3.77571 2.20589 3.83342 2.25112C4.84517 3.02584 6.50782 2.63225 7.05004 1.55476C7.09126 1.47284 7.13061 1.3845 7.2374 1.35565C8.16172 1.89564 9.08728 2.43551 10.0141 2.97526C10.0797 3.01373 10.1501 3.04401 10.2187 3.0782C10.451 3.14695 10.656 3.2563 10.8059 3.44473L11.6175 3.90778C12.0781 4.06628 12.4535 4.36264 12.8624 4.60449C12.8836 4.61632 12.8995 4.63519 12.907 4.65749C12.9144 4.67978 12.913 4.70392 12.9028 4.72524C12.7593 4.70886 12.6165 4.68464 12.4727 4.67751C11.6655 4.63797 10.9363 5.26202 10.795 6.04066C10.6294 6.95145 11.1697 7.42804 11.8948 7.83303C12.8534 8.36732 13.8025 8.91977 14.7543 9.46617C14.7915 9.49514 14.8243 9.52882 14.8518 9.56627C14.8088 9.64178 14.7656 9.71729 14.7221 9.7928Z" fill="#83B649"/>
<path d="M4.44407 25.6196C4.54337 25.3621 4.45794 25.0931 4.49653 24.832C5.95196 25.4675 7.38565 26.1542 8.86805 26.7266C10.8668 27.4981 12.7779 27.2488 14.5294 26.0353C15.078 25.6548 15.5505 25.1868 16.0552 24.7565C16.9785 23.9697 17.9161 23.1968 18.8218 22.3914C19.4588 21.8243 20.1352 21.2961 20.7453 20.6998C20.8322 20.6147 20.8101 20.4074 21.0214 20.4459C21.1758 21.0322 20.9023 21.4607 20.4646 21.835C19.6702 22.5118 18.8874 23.2042 18.0855 23.8742C16.8684 24.8908 15.7382 26.0021 14.4488 26.9396C13.2313 27.8248 11.8299 28.1254 10.3047 27.9541C9.38704 27.8508 8.58101 27.4739 7.76262 27.1149C6.66118 26.6312 5.56 26.1483 4.45906 25.6662C4.43995 25.6602 4.43171 25.6513 4.43395 25.6395C4.4362 25.6278 4.4392 25.6196 4.44407 25.6196Z" fill="#F2BC97"/>
<path d="M10.8059 3.44476C10.6073 3.32686 10.3859 3.24173 10.2188 3.07824C10.9607 2.41465 11.6562 1.70583 12.4135 1.05613C13.6834 -0.0338213 15.7144 -0.335873 17.2474 0.414982C18.4548 1.00448 19.6273 1.65881 20.8137 2.28713C21.0074 2.38972 21.1936 2.50584 21.3836 2.6159C21.2124 2.80907 20.9995 2.96504 20.7593 3.07325C20.2823 2.91047 19.872 2.62659 19.4283 2.40361C18.6234 1.99933 17.874 1.49247 17.0282 1.17546C15.5372 0.614807 14.1181 0.783642 12.786 1.64278C12.5177 1.81589 12.2898 2.02355 12.0598 2.23406C11.7038 2.55998 11.3414 2.87913 10.9851 3.20433C10.9105 3.2713 10.8116 3.32829 10.8059 3.44476Z" fill="#F2BC97"/>
<path d="M4.44421 25.6196C4.44756 25.6354 4.45207 25.651 4.4577 25.6662C4.28645 26.3533 3.8143 26.7255 3.07647 26.7327C2.2326 26.7405 1.39022 26.7369 0.544097 26.7327C0.149889 26.7316 0 26.5848 0 26.2158C0 25.7549 0.00599556 25.294 0.00936807 24.8331C1.3846 24.8331 2.76021 24.8381 4.13544 24.8274C4.37976 24.8252 4.46445 24.8951 4.44121 25.1234C4.42435 25.2869 4.44196 25.4539 4.44421 25.6196Z" fill="#374F68"/>
<path d="M12.9619 16.6189C12.6074 16.8429 12.2548 17.0698 11.8977 17.2903C11.5406 17.5108 11.1643 17.3402 11.1602 16.9427C11.1508 15.9838 11.158 15.0249 11.1565 14.0657C11.1565 13.8238 11.297 13.676 11.5076 13.5713H14.4233C14.4255 13.5859 14.427 13.6005 14.4285 13.6147C14.2715 13.7472 14.0789 13.7017 13.8998 13.7031C13.0601 13.7095 13.0601 13.707 13.0601 14.5156C13.0601 15.0855 13.0623 15.6582 13.0601 16.2296C13.0571 16.3635 13.0822 16.5085 12.9619 16.6189Z" fill="#F7834B"/>
<path d="M10.6367 11.2201C10.9365 10.4332 11.5226 9.95629 12.3829 9.8188C13.1219 9.7009 13.8114 9.80206 14.3206 10.4044C13.9197 11.0039 13.5228 11.6062 13.1148 12.2014C12.9649 12.4215 12.7142 12.4767 12.4777 12.3374C11.8598 11.9716 11.2501 11.593 10.6367 11.2201Z" fill="#6F993D"/>
<path d="M2.74516 3.56549C4.16274 4.00147 4.70871 5.69909 3.79026 6.81825C3.73705 6.88343 3.67785 6.94434 3.62164 7.00739C3.00597 6.64336 2.38693 6.28396 1.77613 5.9128C1.54005 5.77033 1.49172 5.5274 1.64423 5.28448C2.00583 4.70816 2.37756 4.13825 2.74516 3.56549Z" fill="#6F993D"/>
<path d="M7.23755 1.35565C6.82461 2.27962 6.07029 2.72308 5.03606 2.72593C4.77412 2.73007 4.51403 2.68351 4.27162 2.58909C4.02921 2.49466 3.80954 2.35435 3.62598 2.17668C3.9962 1.58361 4.36118 0.987702 4.73853 0.398914C4.88842 0.168101 5.12637 0.106124 5.36544 0.24397C5.99535 0.605507 6.61402 0.98414 7.23755 1.35565Z" fill="#678B38"/>
<path d="M20.7595 3.07322C20.9334 2.88203 21.1458 2.72591 21.3842 2.61409C21.5714 2.56776 21.764 2.54383 21.9575 2.54285C22.7819 2.54285 23.6063 2.54285 24.4307 2.54285C24.8582 2.54285 25.0003 2.68532 24.9999 3.09459C24.9999 3.32505 24.9939 3.55515 24.9909 3.78561C24.8785 3.85969 24.7488 3.83975 24.624 3.83975C23.2663 3.84165 21.9086 3.84283 20.5508 3.84331C20.4822 3.55479 20.6404 3.31864 20.7595 3.07322Z" fill="#374F68"/>
<path d="M12.2643 22.7251C12.5385 22.6609 12.7969 22.5467 13.0253 22.3889L13.2554 22.3315C13.2509 23.2331 12.3613 24.0986 11.4167 24.1093C10.7275 24.1171 10.0381 24.1136 9.34856 24.1093C9.01131 24.1093 8.87079 23.975 8.87716 23.6819C8.88241 23.4347 9.06452 23.2772 9.35456 23.2758C9.91664 23.2733 10.4817 23.2569 11.0438 23.2804C11.5673 23.304 11.9671 23.1276 12.2643 22.7251Z" fill="#E6A173"/>
<path d="M12.9035 4.72528C12.5737 4.45778 12.1802 4.28217 11.8243 4.05243C11.7534 4.00683 11.665 3.98439 11.6182 3.90781C12.1581 3.59436 12.7142 3.60113 13.2433 3.89926C14.1344 4.4015 15.0045 4.93686 15.8896 5.45013C16.1085 5.57729 16.1591 5.75432 16.1171 5.9691C16.0822 6.1472 15.9357 6.22521 15.7656 6.2562C15.6135 6.28362 15.4834 6.2106 15.3601 6.13794C14.6856 5.74114 14.0111 5.34114 13.3366 4.94576C13.1957 4.86455 13.0474 4.7983 12.9035 4.72528Z" fill="#E6A173"/>
<path d="M12.962 16.6189C12.962 15.7156 12.9721 14.8126 12.962 13.9093C12.9597 13.6874 13.0144 13.5969 13.2659 13.6094C13.6526 13.6283 14.0412 13.614 14.4275 13.6137C14.6568 13.6717 14.7194 13.837 14.7198 14.0358C14.7198 15.0043 14.7172 15.9727 14.7236 16.9409C14.7236 17.1322 14.6437 17.2579 14.4744 17.3412C14.305 17.4246 14.1499 17.4004 13.9853 17.2985C13.6458 17.0883 13.3431 16.8244 12.9695 16.6641C12.9679 16.6489 12.9654 16.6338 12.962 16.6189Z" fill="#F56824"/>
<path d="M15.4446 19.1122C15.6582 19.1122 15.8722 19.1087 16.0858 19.1122C16.198 19.1117 16.3061 19.1526 16.3872 19.2264C16.4683 19.3002 16.5161 19.401 16.5205 19.5076C16.5321 19.7049 16.3331 19.935 16.1139 19.9404C15.6477 19.9518 15.1808 19.9546 14.7154 19.9386C14.4599 19.9297 14.2969 19.7249 14.3103 19.4894C14.325 19.2366 14.4561 19.1226 14.7454 19.1115C14.7548 19.1115 14.7645 19.1115 14.7743 19.1115C14.998 19.1119 15.2213 19.1122 15.4446 19.1122Z" fill="#FEA82C"/>
<path d="M1.80764 23.6737C1.80576 23.4065 1.94928 23.2751 2.24269 23.2751C2.35936 23.2757 2.47107 23.32 2.55367 23.3983C2.63627 23.4766 2.68313 23.5827 2.68411 23.6936C2.68411 23.913 2.46228 24.0986 2.21234 24.0922C1.98226 24.0861 1.80951 23.9073 1.80764 23.6737Z" fill="#1F2F42"/>
<path d="M7.41982 5.39813H7.47828C7.83876 5.54061 8.14641 5.77071 8.47692 5.9627C9.08247 6.31485 9.68402 6.67342 10.2816 7.0384C10.346 7.07794 10.4214 7.10608 10.4596 7.1766L10.4629 7.23502C10.0968 7.81205 9.35264 8.15934 8.71037 8.05427C7.92045 7.92461 7.36474 7.45942 7.21148 6.76805C7.10543 6.29253 7.20024 5.83447 7.41982 5.39813Z" fill="#6F993D"/>
<path d="M22.7836 7.23071C23.0426 7.23071 23.1902 7.37711 23.1958 7.63392C23.1973 7.74508 23.1526 7.85232 23.0715 7.93235C22.9903 8.01238 22.8792 8.05874 22.7623 8.06136C22.6442 8.05967 22.5315 8.0139 22.4486 7.93392C22.3658 7.85394 22.3193 7.74618 22.3193 7.63392C22.3231 7.40667 22.5277 7.23071 22.7836 7.23071Z" fill="#1F2F42"/>
<path d="M10.4579 7.17657C10.0543 7.03658 9.7264 6.77193 9.36329 6.56605C8.76636 6.22767 8.18479 5.86506 7.59835 5.5103C7.5537 5.47708 7.51288 5.43947 7.47656 5.39809C8.29233 4.2914 9.8894 4.53753 10.4785 5.52419C10.7966 6.05705 10.8221 6.62981 10.4579 7.17657Z" fill="#678B38"/>
</svg>
