<svg width="20" height="19" viewBox="0 0 20 19" fill="none" xmlns="http://www.w3.org/2000/svg">
<path d="M14.5835 0C13.6451 0.0145958 12.7272 0.276544 11.9224 0.759393C11.1177 1.24224 10.4546 1.92889 10.0001 2.75C9.54566 1.92889 8.88257 1.24224 8.07782 0.759393C7.27308 0.276544 6.35517 0.0145958 5.41679 0C3.92091 0.0649923 2.51155 0.719378 1.49661 1.82019C0.481678 2.92101 -0.0563308 4.37877 0.000128002 5.875C0.000128002 11.5208 9.13013 18.0417 9.51846 18.3183L10.0001 18.6592L10.4818 18.3183C10.8701 18.0433 20.0001 11.5208 20.0001 5.875C20.0566 4.37877 19.5186 2.92101 18.5036 1.82019C17.4887 0.719378 16.0793 0.0649923 14.5835 0ZM10.0001 16.6075C7.28929 14.5825 1.66679 9.6075 1.66679 5.875C1.60983 4.8206 1.9721 3.78644 2.6746 2.99808C3.37709 2.20972 4.36282 1.73113 5.41679 1.66667C6.47077 1.73113 7.45649 2.20972 8.15899 2.99808C8.86149 3.78644 9.22376 4.8206 9.16679 5.875H10.8335C10.7765 4.8206 11.1388 3.78644 11.8413 2.99808C12.5438 2.20972 13.5295 1.73113 14.5835 1.66667C15.6374 1.73113 16.6232 2.20972 17.3257 2.99808C18.0282 3.78644 18.3904 4.8206 18.3335 5.875C18.3335 9.60917 12.711 14.5825 10.0001 16.6075Z" fill="black"/>
</svg>
