<svg width="36" height="27" viewBox="0 0 36 27" fill="none" xmlns="http://www.w3.org/2000/svg">
<path d="M34.2 0H1.8C1.32261 0 0.864773 0.17779 0.527208 0.494258C0.189642 0.810725 0 1.23995 0 1.6875V25.3125C0 25.7601 0.189642 26.1893 0.527208 26.5057C0.864773 26.8222 1.32261 27 1.8 27H34.2C34.6774 27 35.1352 26.8222 35.4728 26.5057C35.8104 26.1893 36 25.7601 36 25.3125V1.6875C36 1.23995 35.8104 0.810725 35.4728 0.494258C35.1352 0.17779 34.6774 0 34.2 0ZM32.4 18.5625C30.9678 18.5625 29.5943 19.0959 28.5816 20.0453C27.5689 20.9947 27 22.2823 27 23.625H9C9 22.2823 8.43107 20.9947 7.41838 20.0453C6.40568 19.0959 5.03217 18.5625 3.6 18.5625V8.4375C5.03217 8.4375 6.40568 7.90413 7.41838 6.95473C8.43107 6.00533 9 4.71766 9 3.375H27C27 4.71766 27.5689 6.00533 28.5816 6.95473C29.5943 7.90413 30.9678 8.4375 32.4 8.4375V18.5625Z" fill="#F13005"/>
<path d="M17.9998 6.75C14.029 6.75 10.7998 9.77737 10.7998 13.5C10.7998 17.2226 14.029 20.25 17.9998 20.25C21.9706 20.25 25.1998 17.2226 25.1998 13.5C25.1998 9.77737 21.9706 6.75 17.9998 6.75ZM17.9998 16.875C16.0144 16.875 14.3998 15.3613 14.3998 13.5C14.3998 11.6387 16.0144 10.125 17.9998 10.125C19.9852 10.125 21.5998 11.6387 21.5998 13.5C21.5998 15.3613 19.9852 16.875 17.9998 16.875Z" fill="#F13005"/>
</svg>
