<svg width="22" height="24" viewBox="0 0 22 24" fill="none" xmlns="http://www.w3.org/2000/svg">
<path d="M16.5005 5H9C8.43311 5 7.71436 5.24512 7.5083 6.41309C7.48291 6.55518 5.00098 22.6367 5.00098 23C5.00098 23.5703 5.43066 24 6.00049 24H11.501C11.7456 24 11.9541 23.8232 11.9941 23.582L12.9243 18H14.5005C18.6353 18 21.9995 14.6357 21.9995 10.5C21.9995 7.46729 19.5327 5 16.5005 5Z" fill="#009ADA"/>
<path opacity="0.1" d="M11.6115 23.75H5.94092C5.5249 23.75 5.18811 23.5177 5.03418 23.1721C5.1142 23.6504 5.49268 24 6.00073 24H11.5012C11.7458 24 11.9543 23.8232 11.9944 23.582L11.999 23.5544C11.9067 23.6715 11.7694 23.75 11.6115 23.75Z" fill="black"/>
<path opacity="0.1" d="M14.5013 17.75H12.9671L12.9238 18H14.5013C18.636 18 22.0003 14.6357 22.0003 10.5C22.0003 10.4578 21.9949 10.4169 21.994 10.3749C21.9263 14.4526 18.5939 17.75 14.5013 17.75Z" fill="black"/>
<path d="M14.4528 0L4.50142 8e-07C3.80806 8e-07 3.22505 0.541505 3.01607 1.3794C2.98628 1.5 0.00190696 19.4175 0.000930356 20.0874C-0.00248764 20.2793 -0.00737043 20.542 0.203567 20.7568C0.413528 20.9707 0.71138 21 1.00191 21H5.28266L6.3437 14H11.5014C16.196 14 20.0135 10.1739 20.0004 5.47586C19.9919 2.44157 17.4871 -3e-07 14.4528 0Z" fill="#273691"/>
<path opacity="0.2" d="M4.44977 0.25H14.4943C16.8986 0.25 18.9675 1.75751 19.7527 3.87231C19.0502 1.62579 16.9283 0 14.4526 0H4.50128C3.80792 0 3.22491 0.541504 3.01593 1.37939C3.01447 1.38525 3.00403 1.44507 2.98926 1.53143C3.22174 0.754456 3.78003 0.25 4.44977 0.25Z" fill="white"/>
<path opacity="0.1" d="M0.870239 20.75C0.579712 20.75 0.28186 20.7207 0.0718994 20.5068C0.0567627 20.4914 0.0501098 20.4744 0.0371094 20.4585C0.0650635 20.5605 0.111328 20.6632 0.203247 20.7568C0.413208 20.9707 0.71106 21 1.00159 21H5.28235L5.32025 20.75H0.870239Z" fill="black"/>
<path opacity="0.2" d="M6.34375 14H11.5015C15.9407 14 19.5908 10.5776 19.9642 6.23303C19.0179 5.46332 17.8129 5 16.501 5H9.00049C8.43359 5 7.71484 5.24512 7.50879 6.41309L6.34375 14Z" fill="black"/>
<path d="M19.9641 6.23303C19.9856 5.98309 20.0011 5.73138 20.0004 5.47583C19.9919 2.44153 17.4871 0 14.4528 0H4.50142C3.80806 0 3.22505 0.541504 3.01607 1.37939C2.98628 1.5 0.00190696 19.4175 0.000930356 20.0874C-0.00248764 20.2793 -0.00737043 20.542 0.203567 20.7568C0.413528 20.9707 0.71138 21 1.00191 21H5.28188C5.11055 22.1576 5.00142 22.9242 5.00142 23C5.00142 23.5703 5.43111 24 6.00093 24H11.5014C11.746 24 11.9545 23.8232 11.9946 23.582L12.9248 18H14.5009C18.6357 18 22 14.6357 22 10.5C22 8.77942 21.2049 7.24231 19.9641 6.23303Z" fill="url(#paint0_linear_259_2168)"/>
<defs>
<linearGradient id="paint0_linear_259_2168" x1="0.284959" y1="7.13071" x2="20.0486" y2="16.3467" gradientUnits="userSpaceOnUse">
<stop stop-color="white" stop-opacity="0.2"/>
<stop offset="1" stop-color="white" stop-opacity="0"/>
</linearGradient>
</defs>
</svg>
