<svg width="34" height="36" viewBox="0 0 34 36" fill="none" xmlns="http://www.w3.org/2000/svg">
<path d="M31.8008 5.88511L18.3008 0.260112C17.8896 0.089519 17.4487 0.00170898 17.0035 0.00170898C16.5583 0.00170898 16.1175 0.089519 15.7063 0.260112L2.20625 5.88511C0.947656 6.40542 0.125 7.63589 0.125 8.99996C0.125 22.957 8.17578 32.6039 15.6992 35.7398C16.5289 36.0843 17.4641 36.0843 18.2937 35.7398C24.3195 33.2296 33.875 24.5601 33.875 8.99996C33.875 7.63589 33.0523 6.40542 31.8008 5.88511ZM17.007 31.3804L17 4.59136L29.368 9.74527C29.1359 20.3906 23.5953 28.1039 17.007 31.3804Z" fill="#F13005"/>
</svg>
