<svg width="42" height="28" viewBox="0 0 42 28" fill="none" xmlns="http://www.w3.org/2000/svg">
<g filter="url(#filter0_d_24_814)">
<path d="M38 9.52286C37.9126 8.75713 37.8431 7.98554 37.7272 7.22296C37.4855 5.63114 36.9623 4.16004 35.8914 2.94387C35.7388 2.76371 35.5681 2.60078 35.3821 2.45786C34.9127 2.11238 34.5695 2.19571 34.2933 2.7128C34.1651 2.93889 34.0574 3.17667 33.9716 3.42313C33.5782 4.65236 32.7407 5.27755 31.5137 5.44736C30.5647 5.57934 29.6424 5.56267 28.7432 5.19467C28.6613 5.16081 28.5822 5.11998 28.5068 5.07261C28.4416 5.03207 28.3835 4.97937 28.2882 4.9055L28.6751 4.58164C28.9583 4.34561 29.2695 4.13751 29.5178 3.86771C29.9816 3.36413 29.9986 2.9218 29.6052 2.36552C29.131 1.68988 28.6436 1.02729 28.1571 0.364711C27.8651 -0.0312176 27.5788 -0.093377 27.1443 0.121028C25.5007 0.933604 23.8579 1.74738 22.2158 2.56236C22.0344 2.65245 21.9055 2.67902 21.7127 2.54704C20.8822 1.97635 19.8196 2.52993 19.7217 3.55421C19.7099 3.67943 19.6058 3.83347 19.5 3.90419C19.1748 4.12175 18.8614 4.2276 18.4348 4.03932C17.8429 3.77762 17.0819 4.21949 16.9263 4.88883C16.8481 5.2262 16.6597 5.34782 16.4088 5.47439C16.1316 5.60952 15.9122 5.71267 15.5651 5.52574C14.8308 5.13071 13.9391 5.66402 13.8193 6.51669C13.7861 6.75361 13.6764 6.85811 13.4919 6.96982C11.5472 8.14499 9.41671 8.81658 7.27267 9.467C6.65546 9.65438 6.05487 9.94536 5.49231 10.2724C4.20676 11.0192 4.23954 12.4281 4.8716 13.4704C5.48356 14.4803 6.42423 15.0767 7.45057 15.5366C8.82573 16.1527 10.2691 16.473 11.7719 16.4352C16.6606 16.3126 21.5491 16.1835 26.4375 16.0478C29.3912 15.9694 32.3443 15.8901 35.2969 15.81C35.6282 15.801 35.9604 15.7852 36.2896 15.7469C37.2941 15.6298 37.812 15.0586 37.9178 13.9632C37.9506 13.6236 37.9729 13.284 38 12.9448V9.52286ZM29.8216 13.3353C29.7005 13.3673 29.6389 13.3988 29.5773 13.3979C28.8914 13.3862 28.2043 13.3871 27.5202 13.3434C27.3427 13.3317 27.1443 13.2105 27.0057 13.0822C24.9898 11.2132 22.979 9.33863 20.9736 7.45854C20.89 7.38393 20.8105 7.30469 20.7353 7.22116C20.5697 7.02657 20.578 6.88154 20.8516 6.81127C21.141 6.73695 21.4325 6.66713 21.7153 6.56984C22.1385 6.42435 22.4882 6.5284 22.8147 6.82748C25.0644 8.88865 27.3153 10.9482 29.5676 13.006C29.6581 13.0889 29.7211 13.2033 29.8216 13.3353ZM16.7921 8.13508C17.4478 7.98689 18.0064 7.84275 18.5734 7.74636C18.6914 7.72654 18.8584 7.85942 18.9668 7.96077C20.786 9.64177 22.6005 11.3273 24.4101 13.0173C24.4976 13.0984 24.5522 13.2164 24.6654 13.3799C24.4626 13.3943 24.3454 13.4087 24.2283 13.4096C23.7532 13.4132 23.2776 13.4038 22.8029 13.4168C22.6377 13.4246 22.4727 13.3974 22.3181 13.3369C22.1636 13.2764 22.0227 13.1839 21.9042 13.065C20.3195 11.5597 18.7313 10.0583 17.1396 8.56074C17.0382 8.46795 16.9613 8.34543 16.7921 8.13508Z" fill="#F13005"/>
<path d="M4.49971 14.3007C3.95987 14.8723 3.84753 15.7713 4.21121 16.6213C4.58451 17.4933 5.24149 18.0928 6.01518 18.5658C7.65436 19.5675 9.44259 20.0391 11.3362 19.9991C16.4027 19.8869 21.4689 19.7392 26.5355 19.6058C29.4764 19.527 32.4208 19.4585 35.3625 19.3657C35.8245 19.3455 36.2822 19.2667 36.7255 19.1311C37.2063 18.9892 37.5 18.6023 37.5997 18.1C37.6802 17.7006 37.7254 17.2944 37.7348 16.8866C37.7404 16.4961 37.5162 16.3416 37.1455 16.4069C37.0904 16.4117 37.036 16.4223 36.9829 16.4384C35.8958 16.8866 34.7563 16.8321 33.6171 16.855C31.283 16.9001 28.9505 17.0172 26.6163 17.0803C21.506 17.2222 16.3953 17.3649 11.2841 17.4757C9.61087 17.5118 8.02022 17.0906 6.52704 16.3001C5.65369 15.8411 5.16499 15.3596 4.49971 14.3007Z" fill="#F13005"/>
</g>
<defs>
<filter id="filter0_d_24_814" x="0" y="-0.000488281" width="42" height="28.002" filterUnits="userSpaceOnUse" color-interpolation-filters="sRGB">
<feFlood flood-opacity="0" result="BackgroundImageFix"/>
<feColorMatrix in="SourceAlpha" type="matrix" values="0 0 0 0 0 0 0 0 0 0 0 0 0 0 0 0 0 0 127 0" result="hardAlpha"/>
<feOffset dy="4"/>
<feGaussianBlur stdDeviation="2"/>
<feComposite in2="hardAlpha" operator="out"/>
<feColorMatrix type="matrix" values="0 0 0 0 0 0 0 0 0 0 0 0 0 0 0 0 0 0 0.25 0"/>
<feBlend mode="normal" in2="BackgroundImageFix" result="effect1_dropShadow_24_814"/>
<feBlend mode="normal" in="SourceGraphic" in2="effect1_dropShadow_24_814" result="shape"/>
</filter>
</defs>
</svg>
